<?xml version="1.0" standalone="no"?>
<!DOCTYPE svg PUBLIC "-//W3C//DTD SVG 20010904//EN"
 "http://www.w3.org/TR/2001/REC-SVG-20010904/DTD/svg10.dtd">
<svg version="1.0" xmlns="http://www.w3.org/2000/svg"
 width="1000.000000pt" height="1000.000000pt" viewBox="0 0 1000.000000 1000.000000"
 preserveAspectRatio="xMidYMid meet">
<metadata>
Created by potrace 1.16, written by Peter Selinger 2001-2019
</metadata>
<g transform="translate(0.000000,1000.000000) scale(0.100000,-0.100000)"
fill="#000000" stroke="none">
<path d="M4313 6712 l-472 -287 0 -520 0 -520 176 -105 c97 -58 180 -106 185
-108 4 -2 8 207 8 465 l0 468 24 52 c30 63 35 67 331 226 l230 124 3 247 c1
135 -1 246 -5 245 -5 0 -220 -130 -480 -287z"/>
<path d="M4966 6828 c3 -68 9 -126 13 -130 7 -8 359 -198 366 -198 3 0 5 55 5
123 l0 122 -186 103 c-102 56 -190 102 -195 102 -7 0 -8 -42 -3 -122z"/>
<path d="M5528 6027 c1 -365 6 -711 10 -769 l7 -107 177 107 177 107 0 550 0
550 -180 110 c-100 61 -184 111 -188 113 -3 1 -5 -296 -3 -661z"/>
<path d="M4972 5672 c2 -446 6 -813 10 -817 3 -4 88 44 187 105 l181 113 0
622 0 622 -182 79 c-100 43 -185 81 -190 83 -6 2 -8 -325 -6 -807z"/>
<path d="M6058 6389 l-68 -40 0 -79 0 -79 68 -40 67 -40 70 39 70 38 3 80 3
80 -71 41 c-40 23 -72 41 -73 41 -1 0 -32 -18 -69 -41z"/>
<path d="M4649 6234 c-79 -47 -153 -93 -163 -102 -10 -9 -29 -39 -42 -67 l-24
-50 0 -480 0 -480 172 -100 c95 -55 177 -101 183 -103 9 -2 14 186 19 729 4
402 6 733 4 735 -2 2 -69 -35 -149 -82z"/>
<path d="M5256 4475 c-86 -30 -158 -117 -176 -214 -5 -29 -10 -103 -10 -162
l0 -109 -55 0 -55 0 0 -105 0 -105 55 0 55 0 0 -375 0 -375 105 0 105 0 0 375
0 375 135 0 135 0 0 105 0 105 -135 0 -135 0 0 110 c0 146 16 180 88 180 14 0
34 -8 44 -17 18 -16 22 -13 93 57 l75 74 -23 24 c-40 44 -114 72 -192 71 -38
0 -87 -6 -109 -14z"/>
<path d="M5710 3750 l0 -720 105 0 105 0 0 720 0 720 -105 0 -105 0 0 -720z"/>
<path d="M4631 4314 c-102 -85 10 -240 129 -179 37 19 50 43 50 95 0 52 -13
76 -50 95 -44 23 -94 19 -129 -11z"/>
<path d="M2211 4009 c-123 -24 -269 -133 -330 -248 -102 -193 -72 -431 75
-590 107 -116 212 -163 369 -165 91 -1 105 2 157 27 32 16 75 48 98 74 l40 46
0 -62 0 -61 105 0 105 0 0 480 0 480 -105 0 -106 0 7 -62 7 -62 -37 37 c-100
100 -231 136 -385 106z m225 -214 c79 -33 146 -125 165 -231 25 -137 -50 -290
-170 -342 -55 -24 -156 -20 -216 9 -219 103 -240 407 -37 538 79 50 176 60
258 26z"/>
<path d="M3303 4005 c-170 -46 -313 -195 -352 -365 -15 -67 -13 -208 4 -275
22 -84 61 -151 130 -221 120 -123 288 -171 450 -129 99 26 205 94 255 165 l21
29 -93 50 -92 50 -29 -25 c-140 -118 -321 -84 -411 76 -29 51 -31 62 -31 150
0 87 3 100 30 149 36 65 92 115 153 135 87 30 160 16 240 -44 l50 -38 91 50
92 49 -21 29 c-98 138 -315 211 -487 165z"/>
<path d="M4268 4001 c-31 -10 -80 -35 -107 -56 l-51 -37 0 41 0 41 -105 0
-105 0 0 -480 0 -480 105 0 105 0 0 283 c0 222 3 294 15 334 32 109 155 183
257 155 l36 -10 41 105 c23 58 40 108 37 110 -3 3 -42 7 -88 9 -63 3 -97 0
-140 -15z"/>
<path d="M6401 4004 c-129 -35 -244 -130 -305 -255 -155 -318 27 -694 359
-742 143 -21 277 21 386 121 53 49 127 157 116 168 -3 3 -50 17 -104 29 l-98
24 -33 -40 c-19 -21 -55 -52 -80 -67 -39 -23 -58 -27 -117 -27 -79 1 -130 22
-185 77 -32 31 -69 99 -70 126 0 9 80 12 365 12 l365 0 0 83 c0 142 -44 257
-135 355 -121 131 -295 182 -464 136z m201 -186 c72 -21 156 -111 179 -190 l8
-28 -265 0 c-180 0 -264 3 -264 11 0 5 12 35 27 65 60 124 187 181 315 142z"/>
<path d="M4600 3510 l0 -480 105 0 105 0 0 480 0 480 -105 0 -105 0 0 -480z"/>
<path d="M6977 3978 c124 -161 333 -463 329 -474 -3 -8 -77 -113 -164 -232
-87 -119 -162 -223 -166 -229 -6 -10 21 -13 123 -13 l129 0 78 108 c43 59 92
126 110 150 l32 42 109 -150 108 -150 133 0 132 0 -82 113 c-45 61 -124 170
-175 240 l-94 128 170 234 c94 129 171 237 171 240 0 3 -58 5 -128 5 l-128 0
-105 -144 c-57 -80 -108 -144 -112 -143 -4 1 -54 65 -111 142 l-102 140 -134
3 c-107 2 -131 0 -123 -10z"/>
<path d="M7983 3957 l-53 -32 0 -71 0 -72 65 -33 65 -34 57 32 58 32 3 74 3
75 -55 31 c-31 17 -64 31 -73 30 -10 0 -42 -15 -70 -32z"/>
</g>
</svg>
