<?xml version="1.0" standalone="no"?>
<!DOCTYPE svg PUBLIC "-//W3C//DTD SVG 20010904//EN"
 "http://www.w3.org/TR/2001/REC-SVG-20010904/DTD/svg10.dtd">
<svg version="1.0" xmlns="http://www.w3.org/2000/svg"
 width="1000.000000pt" height="1000.000000pt" viewBox="0 0 1000.000000 1000.000000"
 preserveAspectRatio="xMidYMid meet">
<metadata>
Created by potrace 1.16, written by Peter Selinger 2001-2019
</metadata>
<g transform="translate(0.000000,1000.000000) scale(0.100000,-0.100000)"
fill="#000000" stroke="none">
<path d="M4418 6751 l-498 -286 3 -583 2 -584 490 -274 c270 -150 497 -273
505 -271 19 3 750 409 750 416 0 3 -19 17 -41 31 -59 36 -94 93 -137 224 -20
64 -40 116 -43 116 -4 0 -18 -24 -32 -52 -52 -105 -157 -206 -262 -253 -80
-36 -153 -49 -260 -49 -325 2 -541 190 -610 533 -23 111 -16 292 15 406 77
286 251 456 512 496 106 16 174 7 249 -32 115 -62 192 -153 290 -343 l56 -109
11 34 c6 19 34 121 62 228 28 107 58 210 66 229 8 20 11 39 7 43 -6 5 -611
353 -633 364 -3 2 -229 -126 -502 -284z"/>
<path d="M5649 6173 l-106 -377 39 -101 c49 -125 104 -228 144 -272 27 -28 38
-33 78 -33 55 0 89 29 107 89 6 23 9 203 7 511 l-3 474 -75 43 c-41 24 -77 43
-80 43 -3 0 -53 -170 -111 -377z"/>
<path d="M6093 6422 l-83 -47 0 -97 0 -97 81 -45 c45 -25 82 -46 84 -46 2 0
39 21 84 46 l81 45 0 97 c0 95 -1 97 -28 112 -15 9 -52 30 -82 47 l-55 32 -82
-47z"/>
<path d="M4795 6366 c-63 -20 -97 -41 -141 -88 -87 -90 -116 -190 -118 -398
-1 -93 4 -165 13 -200 49 -198 168 -298 341 -288 95 6 159 37 226 111 50 55
141 223 188 349 l25 66 -28 84 c-35 104 -48 128 -104 203 -106 140 -265 204
-402 161z"/>
<path d="M3470 4491 c-90 -19 -167 -81 -206 -165 -22 -46 -24 -65 -24 -193 l0
-143 -60 0 -60 0 0 -105 0 -105 60 0 60 0 0 -385 0 -385 105 0 105 0 0 385 0
385 135 0 135 0 0 105 0 105 -135 0 -135 0 0 120 c0 115 1 122 25 145 28 29
70 32 104 9 23 -16 25 -15 97 57 l74 73 -26 27 c-52 54 -173 87 -254 70z"/>
<path d="M2760 3740 l0 -730 105 0 105 0 0 730 0 730 -105 0 -105 0 0 -730z"/>
<path d="M6814 4306 c-38 -38 -45 -86 -19 -135 30 -58 138 -68 182 -16 42 48
26 143 -28 171 -50 25 -97 18 -135 -20z"/>
<path d="M1974 4010 c-216 -32 -388 -199 -425 -414 -39 -229 77 -455 286 -559
74 -37 131 -50 225 -50 106 0 176 28 245 98 l45 47 0 -61 0 -61 105 0 105 0 0
490 0 490 -105 0 -105 0 7 -62 6 -63 -46 42 c-60 55 -130 90 -208 103 -35 5
-68 9 -74 9 -5 -1 -33 -5 -61 -9z m203 -228 c22 -12 59 -42 81 -67 102 -116
102 -314 0 -430 -60 -68 -107 -89 -198 -90 -90 0 -145 23 -209 87 -134 136
-117 356 38 470 23 16 61 37 84 44 57 19 152 12 204 -14z"/>
<path d="M5482 4009 c-60 -10 -119 -38 -174 -81 l-38 -30 0 46 0 46 -105 0
-105 0 0 -490 0 -490 104 0 104 0 4 308 c3 292 4 309 25 347 45 83 124 135
205 135 58 0 139 -40 173 -83 50 -67 55 -105 55 -419 l0 -288 105 0 105 0 0
305 c0 337 2 349 63 414 117 123 314 77 373 -86 10 -29 13 -113 14 -335 l0
-298 105 0 106 0 -3 358 -3 357 -27 58 c-118 251 -444 310 -639 115 l-51 -51
-29 35 c-79 97 -230 149 -367 127z"/>
<path d="M4103 3995 c-150 -46 -262 -189 -298 -379 -50 -258 44 -495 233 -588
65 -32 69 -33 202 -33 119 0 141 3 183 22 72 33 125 80 168 145 l37 59 17 -58
c35 -120 80 -173 163 -191 55 -13 100 -1 135 35 37 39 54 86 62 176 l7 77 -29
0 c-25 0 -30 -6 -43 -48 -19 -59 -57 -83 -94 -59 -24 16 -86 126 -121 216
l-21 55 78 275 c43 152 78 280 78 284 0 4 -42 6 -92 5 l-93 -3 -39 -148 -40
-148 -34 68 c-63 126 -134 204 -216 238 -44 19 -184 19 -243 0z m212 -189 c79
-33 168 -144 200 -247 l18 -56 -40 -89 c-82 -186 -146 -253 -247 -262 -97 -8
-167 32 -211 119 -70 136 -47 387 43 483 57 60 161 83 237 52z"/>
<path d="M6780 3500 l0 -490 110 0 110 0 0 490 0 490 -110 0 -110 0 0 -490z"/>
<path d="M7072 3958 c12 -18 89 -124 171 -236 81 -112 150 -208 152 -215 3 -7
-74 -120 -170 -252 -96 -131 -175 -240 -175 -242 0 -2 60 -3 133 -3 l132 1 47
67 c26 37 76 106 111 154 l63 87 113 -154 112 -155 130 0 c71 0 129 2 129 5 0
3 -79 113 -175 246 l-175 240 168 232 c93 128 172 238 176 245 6 9 -22 12
-123 12 l-131 0 -93 -127 c-50 -69 -101 -137 -112 -151 l-21 -24 -109 151
-110 150 -133 1 -133 0 23 -32z"/>
<path d="M8208 3944 l-78 -46 0 -97 0 -97 75 -42 c41 -23 81 -42 89 -42 7 0
48 19 90 43 l76 42 0 96 0 96 -80 47 c-44 25 -83 46 -87 46 -5 0 -43 -21 -85
-46z"/>
</g>
</svg>
