<?xml version="1.0" standalone="no"?>
<!DOCTYPE svg PUBLIC "-//W3C//DTD SVG 20010904//EN"
 "http://www.w3.org/TR/2001/REC-SVG-20010904/DTD/svg10.dtd">
<svg version="1.0" xmlns="http://www.w3.org/2000/svg"
 width="1000.000000pt" height="1000.000000pt" viewBox="0 0 1000.000000 1000.000000"
 preserveAspectRatio="xMidYMid meet">
<metadata>
Created by potrace 1.16, written by Peter Selinger 2001-2019
</metadata>
<g transform="translate(0.000000,1000.000000) scale(0.100000,-0.100000)"
fill="#000000" stroke="none">
<path d="M4383 6732 l-602 -347 -1 -706 0 -706 604 -337 c331 -185 609 -336
616 -336 7 0 285 151 616 336 l604 337 0 706 -1 706 -600 345 c-330 190 -608
346 -617 347 -9 1 -288 -154 -619 -345z m46 -862 c77 -22 107 -96 59 -147
l-22 -23 29 -30 c55 -57 28 -137 -54 -160 -20 -5 -82 -10 -138 -10 l-103 0 0
190 0 190 98 0 c53 0 112 -4 131 -10z m461 -165 c42 -93 79 -178 83 -187 5
-15 0 -18 -34 -18 -36 0 -41 3 -55 35 l-14 35 -101 0 -100 0 -15 -35 c-13 -32
-18 -35 -54 -35 l-40 0 14 33 c23 53 148 331 153 340 3 4 23 7 46 5 l41 -3 76
-170z m380 159 l40 -16 -17 -28 c-15 -27 -17 -27 -49 -14 -67 28 -144 12 -144
-31 0 -30 17 -39 105 -56 45 -9 67 -19 93 -45 30 -30 34 -39 29 -71 -16 -96
-141 -138 -263 -87 -43 18 -48 28 -29 58 15 23 17 23 47 9 69 -35 159 -22 166
23 4 29 -16 43 -84 55 -98 18 -144 53 -144 110 0 30 42 86 74 99 35 14 133 11
176 -6z m210 -174 l0 -190 -40 0 -40 0 0 190 0 190 40 0 40 0 0 -190z m366
174 c45 -22 50 -32 26 -56 -16 -16 -23 -18 -40 -9 -11 6 -43 11 -71 11 -61 0
-107 -33 -117 -86 -22 -116 64 -190 172 -149 43 16 46 16 65 -1 27 -24 24 -31
-19 -53 -80 -41 -163 -35 -231 16 -103 79 -88 262 26 322 48 25 141 27 189 5z
m-1775 -34 c39 -20 40 -22 37 -68 -3 -43 -6 -49 -40 -67 l-38 -20 -37 20 c-34
18 -38 24 -41 65 -3 43 -1 47 35 68 21 12 39 22 41 22 1 0 21 -9 43 -20z"/>
<path d="M3380 3810 c-28 -28 -26 -75 5 -105 30 -30 64 -32 99 -4 32 25 37 86
8 112 -26 24 -87 22 -112 -3z"/>
<path d="M1520 3797 c0 -21 6 -25 42 -31 23 -4 48 -12 55 -18 10 -8 13 -87 13
-368 0 -401 2 -390 -73 -390 -33 0 -37 -3 -37 -26 l0 -25 233 3 c217 3 235 4
282 26 98 45 144 114 145 215 0 99 -59 178 -161 214 l-47 17 31 16 c18 10 45
34 61 54 25 30 31 48 34 101 5 83 -1 106 -41 151 -61 70 -95 78 -329 82 l-208
4 0 -25z m394 -57 c102 -52 98 -230 -6 -283 -21 -10 -65 -21 -98 -24 l-60 -6
0 168 0 167 68 -4 c37 -2 80 -10 96 -18z m43 -398 c74 -38 109 -106 101 -194
-10 -96 -81 -148 -204 -148 -106 0 -104 -4 -104 202 l0 171 83 -5 c56 -4 96
-12 124 -26z"/>
<path d="M4160 3725 l0 -55 140 0 140 0 0 -370 0 -370 55 0 55 0 0 370 0 370
140 0 140 0 0 55 0 55 -335 0 -335 0 0 -55z"/>
<path d="M5047 3550 c-92 -23 -169 -89 -211 -179 -30 -66 -30 -206 1 -273 26
-56 93 -126 148 -153 59 -29 204 -28 260 2 52 28 145 127 145 155 0 3 -25 12
-55 18 l-54 11 -31 -34 c-59 -68 -138 -84 -218 -46 -42 21 -83 69 -97 117 l-6
22 240 0 241 0 0 60 c0 118 -64 226 -163 274 -59 29 -144 40 -200 26z m160
-126 c43 -25 76 -69 88 -116 l7 -28 -186 0 c-206 0 -202 -2 -171 65 34 71 117
120 185 109 19 -3 54 -16 77 -30z"/>
<path d="M5728 3546 c-26 -7 -63 -25 -82 -40 l-36 -27 0 30 c0 31 0 31 -55 31
l-55 0 0 -305 0 -305 54 0 54 0 4 198 c3 177 5 201 24 232 31 53 77 80 139 80
l52 0 22 52 c12 28 20 52 19 54 -12 10 -102 11 -140 0z"/>
<path d="M6165 3551 c-39 -10 -74 -28 -102 -54 l-23 -20 0 31 0 32 -55 0 -55
0 0 -305 0 -305 54 0 55 0 3 203 3 204 28 36 c36 48 75 67 134 67 47 0 48 1
66 43 23 57 22 64 -14 71 -37 7 -53 7 -94 -3z"/>
<path d="M6522 3545 c-282 -79 -314 -461 -50 -596 52 -27 168 -37 222 -19 20
6 52 26 70 44 l34 32 6 -38 6 -38 55 0 55 0 0 305 0 305 -55 0 -55 0 0 -42 0
-42 -32 31 c-68 64 -159 85 -256 58z m184 -126 c70 -43 106 -146 84 -239 -22
-92 -94 -152 -180 -152 -134 0 -234 134 -196 264 37 130 185 193 292 127z"/>
<path d="M7827 3550 c-97 -24 -187 -105 -221 -199 -28 -79 -20 -198 19 -270
57 -104 151 -161 265 -161 114 0 214 61 268 164 24 45 27 62 27 151 0 116 -18
166 -86 233 -70 70 -182 104 -272 82z m143 -125 c91 -47 135 -175 95 -273 -45
-106 -166 -152 -260 -99 -123 70 -141 245 -35 341 22 20 52 38 67 42 16 3 33
7 38 9 15 5 67 -6 95 -20z"/>
<path d="M8267 3519 l-68 -40 3 -82 3 -81 67 -38 67 -38 68 39 68 39 3 80 3
80 -71 41 c-40 23 -72 41 -73 41 -1 -1 -33 -19 -70 -41z"/>
<path d="M7000 3485 l0 -55 181 0 181 0 -181 -194 -181 -194 0 -56 0 -56 260
0 260 0 0 55 0 55 -175 0 c-96 0 -175 3 -174 8 0 4 78 90 174 192 l174 185 1
58 0 57 -260 0 -260 0 0 -55z"/>
<path d="M2415 3487 c-93 -50 -123 -74 -135 -112 -19 -58 17 -97 68 -73 20 10
28 23 33 52 13 79 105 114 164 63 22 -18 27 -34 32 -83 l6 -62 -84 -27 c-174
-57 -239 -109 -239 -191 0 -92 47 -134 148 -134 46 0 72 6 113 28 l54 28 23
-28 c34 -41 94 -39 150 4 42 32 47 43 36 72 -5 14 -8 14 -29 0 -13 -9 -32 -14
-42 -12 -16 3 -18 21 -23 213 -4 181 -8 214 -23 237 -45 66 -155 77 -252 25z
m163 -349 c-3 -72 -3 -72 -46 -105 -75 -57 -162 -39 -162 34 0 49 48 93 131
121 35 12 68 21 72 22 4 0 7 -32 5 -72z"/>
<path d="M2965 3506 c-74 -33 -114 -115 -94 -190 14 -51 46 -82 146 -140 44
-26 88 -58 97 -71 38 -58 -1 -125 -71 -125 -62 0 -103 36 -124 108 -10 35 -16
42 -37 42 l-25 0 7 -82 c7 -91 14 -101 76 -118 47 -13 139 -13 181 1 72 25
119 92 119 172 0 69 -30 103 -145 164 -55 29 -108 63 -117 74 -44 53 -2 119
74 119 47 0 95 -41 104 -89 6 -26 11 -31 36 -31 27 0 30 3 24 23 -3 12 -6 45
-6 73 0 51 -1 52 -40 68 -49 19 -163 21 -205 2z"/>
<path d="M3416 3501 c-16 -11 -44 -22 -62 -26 -28 -5 -34 -11 -34 -30 0 -17 6
-25 18 -25 39 0 42 -17 42 -215 0 -206 -2 -215 -52 -215 -23 0 -28 -4 -28 -25
l0 -25 140 0 140 0 0 25 c0 21 -5 25 -27 25 -59 0 -58 -4 -58 275 l1 255 -26
0 c-14 0 -38 -9 -54 -19z"/>
<path d="M3813 3496 c-135 -63 -211 -234 -169 -378 59 -202 277 -264 436 -121
52 47 59 63 36 82 -10 9 -25 4 -65 -23 -87 -59 -163 -60 -227 -4 -57 51 -79
101 -79 188 1 132 66 220 164 220 40 0 48 -5 85 -45 64 -69 121 -59 114 22 -3
34 -8 40 -48 61 -64 32 -175 31 -247 -2z"/>
</g>
</svg>
