<?xml version="1.0" standalone="no"?>
<!DOCTYPE svg PUBLIC "-//W3C//DTD SVG 20010904//EN"
 "http://www.w3.org/TR/2001/REC-SVG-20010904/DTD/svg10.dtd">
<svg version="1.0" xmlns="http://www.w3.org/2000/svg"
 width="519.000000pt" height="520.000000pt" viewBox="0 0 519.000000 520.000000"
 preserveAspectRatio="xMidYMid meet">

<g transform="translate(0.000000,520.000000) scale(0.100000,-0.100000)"
fill="#000000" stroke="none">
<path d="M1278 4044 c-149 -36 -274 -134 -351 -274 -67 -121 -83 -255 -47
-394 72 -282 360 -461 641 -396 59 13 176 68 224 104 88 67 202 96 310 78 64
-10 184 -59 215 -87 28 -25 154 -82 210 -95 207 -49 427 34 558 210 230 307
68 756 -308 851 -151 38 -277 16 -425 -75 -148 -91 -169 -100 -267 -104 -107
-5 -196 19 -291 81 -164 107 -314 139 -469 101z m281 -122 c36 -14 91 -42 123
-62 162 -105 352 -135 502 -80 28 11 92 45 140 76 49 31 114 65 145 75 65 23
174 27 241 9 153 -41 276 -165 316 -320 59 -232 -84 -473 -320 -536 -106 -28
-224 -10 -331 52 -177 102 -272 134 -395 134 -116 0 -172 -20 -309 -108 -34
-23 -88 -51 -120 -63 -162 -62 -349 -16 -468 116 -80 88 -115 179 -114 299 1
260 223 461 481 438 25 -2 74 -16 109 -30z"/>
<path d="M3708 4050 c-236 -37 -431 -239 -456 -471 -14 -141 11 -253 79 -360
171 -264 506 -333 769 -158 156 105 251 300 236 487 -25 317 -317 550 -628
502z m211 -119 c200 -62 323 -243 309 -453 -9 -130 -70 -242 -173 -320 -83
-63 -144 -82 -266 -82 -102 -1 -107 0 -182 37 -236 117 -321 372 -203 606 51
100 172 194 284 220 65 16 167 12 231 -8z"/>
<path d="M910 2196 l0 -416 168 0 c179 0 266 13 345 50 192 90 273 348 176
556 -28 58 -102 135 -159 164 -87 45 -128 52 -332 57 l-198 6 0 -417z m442
287 c72 -33 134 -96 158 -161 22 -57 28 -160 14 -218 -19 -79 -76 -149 -154
-189 -63 -32 -91 -36 -232 -37 l-123 -1 -3 317 -2 318 147 -4 c125 -3 155 -7
195 -25z"/>
<path d="M1820 2196 l0 -416 50 0 50 0 0 135 0 135 134 0 134 0 108 -135 109
-135 64 0 c49 0 61 3 54 13 -5 6 -57 71 -116 144 l-107 131 45 22 c97 47 137
110 143 227 4 75 2 88 -23 138 -30 63 -70 97 -147 127 -46 19 -80 22 -275 26
l-223 4 0 -416z m470 287 c68 -35 90 -74 90 -159 0 -77 -26 -119 -92 -152 -42
-21 -60 -23 -195 -23 -81 0 -154 0 -160 0 -10 1 -13 44 -13 181 l0 180 158 0
c153 0 160 -1 212 -27z"/>
<path d="M2730 2196 l0 -416 50 0 50 0 0 135 0 135 133 0 134 0 107 -135 108
-135 65 0 c62 0 65 1 51 18 -8 9 -54 67 -103 127 -49 61 -95 118 -103 127 -12
15 -9 19 35 41 93 48 142 128 143 232 0 93 -16 133 -74 191 -76 76 -112 85
-378 91 l-218 5 0 -416z m459 294 c81 -37 108 -90 99 -191 -6 -63 -31 -97 -89
-127 -42 -20 -60 -23 -195 -23 -82 0 -155 0 -161 0 -10 1 -13 44 -13 181 l0
180 158 0 c135 0 163 -3 201 -20z"/>
<path d="M3635 2598 c-3 -7 -4 -193 -3 -413 l3 -400 52 -3 52 -3 3 130 3 130
160 5 c232 6 315 39 372 148 23 46 27 65 27 138 0 95 -14 135 -67 190 -68 70
-148 87 -415 89 -141 1 -183 -1 -187 -11z m460 -107 c46 -21 79 -54 94 -94 17
-43 13 -117 -9 -165 -16 -35 -29 -47 -72 -67 -49 -23 -64 -25 -210 -25 l-158
0 0 185 0 185 158 0 c131 0 164 -3 197 -19z"/>
<path d="M2836 1559 c-49 -39 -29 -87 54 -129 32 -16 41 -26 38 -43 -4 -26
-45 -35 -79 -17 -31 17 -50 -4 -26 -28 12 -12 34 -17 68 -17 41 0 54 4 70 24
37 46 17 87 -61 126 -40 20 -50 33 -43 52 6 16 46 17 74 3 15 -9 21 -7 26 6
16 42 -75 59 -121 23z"/>
<path d="M3110 1570 c-8 -5 -25 -7 -37 -3 l-23 5 0 -217 c0 -201 1 -216 18
-213 14 3 17 17 20 100 l3 96 28 -11 c44 -16 107 6 131 46 24 39 26 106 5 147
-25 49 -104 76 -145 50z m95 -55 c36 -35 34 -88 -4 -126 -32 -31 -45 -34 -85
-19 -24 9 -26 14 -26 76 0 52 4 70 18 80 27 21 70 17 97 -11z"/>
<path d="M3372 1572 c-13 -4 -23 -10 -23 -14 1 -5 1 -12 1 -18 0 -5 21 -7 51
-3 43 5 54 3 65 -12 26 -35 17 -45 -39 -45 -44 0 -58 -4 -77 -25 -32 -34 -30
-83 5 -112 30 -26 59 -29 98 -9 15 8 27 11 27 5 0 -5 10 -9 21 -9 21 0 21 4
17 106 -3 97 -6 108 -27 125 -23 19 -73 23 -119 11z m106 -154 c4 -33 -33 -61
-75 -56 -22 2 -29 9 -31 31 -5 42 14 59 62 55 36 -3 41 -6 44 -30z"/>
<path d="M3665 1570 c-35 -14 -64 -49 -76 -89 -10 -34 -9 -45 10 -84 33 -68
99 -94 160 -63 41 22 54 41 38 55 -11 8 -20 6 -41 -10 -55 -43 -126 -1 -126
74 0 64 62 102 120 72 24 -13 35 -14 44 -5 8 8 4 17 -17 36 -29 25 -73 31
-112 14z"/>
<path d="M3918 1564 c-36 -19 -58 -63 -58 -114 0 -86 59 -138 143 -126 49 8
77 30 60 47 -8 8 -17 8 -31 0 -36 -19 -72 -13 -103 18 -16 16 -29 34 -29 40 0
7 34 11 95 11 l95 0 0 28 c0 15 -9 42 -20 60 -31 51 -96 67 -152 36z m111 -50
c11 -15 18 -30 15 -35 -8 -13 -144 -11 -144 1 0 6 11 22 25 35 33 34 77 33
104 -1z"/>
<path d="M4162 1557 c-40 -43 -20 -87 57 -127 21 -10 41 -26 44 -34 8 -21 -19
-39 -50 -33 -59 12 -66 12 -70 0 -7 -21 60 -47 101 -39 76 14 85 88 16 133
-79 50 -82 54 -69 70 10 11 24 13 56 8 35 -5 43 -3 43 9 0 40 -94 49 -128 13z"/>
</g>
</svg>
