<?xml version="1.0" standalone="no"?>
<!DOCTYPE svg PUBLIC "-//W3C//DTD SVG 20010904//EN"
 "http://www.w3.org/TR/2001/REC-SVG-20010904/DTD/svg10.dtd">
<svg version="1.0" xmlns="http://www.w3.org/2000/svg"
 width="554.000000pt" height="554.000000pt" viewBox="0 0 554.000000 554.000000"
 preserveAspectRatio="xMidYMid meet">

<g transform="translate(0.000000,554.000000) scale(0.100000,-0.100000)"
fill="#000000" stroke="none">
<path d="M2 2773 l3 -2768 2765 0 2765 0 0 2765 0 2765 -2768 3 -2767 2 2
-2767z m1993 1063 c26 -8 82 -35 124 -59 165 -96 274 -101 396 -17 95 65 151
84 256 84 90 1 99 -1 171 -37 89 -43 157 -112 197 -197 23 -49 26 -68 26 -165
0 -98 -3 -116 -26 -165 -88 -186 -303 -283 -489 -220 -36 12 -92 39 -125 60
-139 89 -261 91 -389 6 -81 -54 -143 -77 -221 -83 -308 -24 -526 308 -386 586
30 59 115 147 169 175 84 44 212 57 297 32z m1748 -1 c32 -8 76 -25 99 -36 59
-30 138 -114 173 -184 27 -56 30 -68 30 -170 0 -99 -3 -116 -27 -168 -35 -75
-125 -165 -203 -202 -55 -27 -70 -30 -165 -30 -98 0 -109 2 -170 32 -122 59
-204 168 -231 307 -32 157 65 342 218 418 100 49 178 59 276 33z m-1861 -1083
c59 -26 123 -84 151 -136 18 -34 22 -58 22 -141 0 -116 -14 -154 -81 -221 -67
-68 -126 -84 -304 -84 l-150 0 0 306 0 306 158 -4 c132 -4 164 -8 204 -26z
m647 17 c65 -14 110 -44 139 -94 19 -34 22 -52 20 -111 -3 -60 -8 -77 -32
-108 -15 -21 -43 -45 -62 -53 -19 -9 -34 -21 -34 -26 0 -7 81 -111 148 -189
14 -17 12 -18 -36 -18 l-51 0 -81 100 -81 100 -94 0 -95 0 0 -100 0 -100 -40
0 -40 0 0 305 0 305 145 0 c79 0 167 -5 194 -11z m684 -3 c106 -32 151 -97
145 -206 -3 -55 -9 -74 -32 -104 -15 -21 -43 -45 -62 -53 -19 -9 -34 -21 -34
-25 0 -5 36 -54 80 -109 l81 -99 -49 0 -49 0 -83 100 -83 100 -93 0 -94 0 0
-100 0 -100 -40 0 -40 0 0 305 0 305 153 0 c102 0 169 -5 200 -14z m674 -1
c28 -8 63 -25 78 -37 80 -63 87 -224 14 -298 -52 -51 -91 -62 -236 -68 l-133
-4 0 -94 0 -94 -40 0 -40 0 0 305 0 305 153 0 c107 0 169 -5 204 -15z m-846
-755 c31 -17 22 -31 -17 -28 -50 4 -53 -15 -7 -43 21 -13 41 -28 45 -33 14
-20 8 -55 -11 -66 -28 -14 -86 -12 -100 3 -16 20 -3 27 39 21 47 -8 59 9 24
33 -40 27 -74 61 -74 73 0 18 39 50 61 50 11 0 29 -5 40 -10z m214 -14 c44
-44 45 -100 4 -145 -17 -18 -30 -22 -65 -19 l-43 3 -3 -70 c-2 -40 -7 -69 -13
-68 -10 3 -20 285 -11 308 2 5 27 11 55 13 43 2 55 -1 76 -22z m200 0 c12 -17
15 -43 13 -92 l-3 -68 -57 -4 c-51 -2 -59 0 -73 21 -30 46 9 97 75 97 28 0 30
2 20 21 -10 17 -17 20 -51 14 -31 -5 -39 -4 -39 8 0 19 15 25 62 26 29 1 41
-4 53 -23z m206 5 c31 -25 18 -37 -24 -24 -64 19 -107 -30 -76 -86 17 -30 52
-38 85 -20 31 16 42 4 19 -21 -20 -22 -73 -27 -107 -9 -26 14 -48 67 -41 102
7 35 57 77 93 77 15 0 38 -9 51 -19z m205 -6 c17 -17 24 -34 22 -53 -3 -26 -6
-27 -71 -32 l-68 -5 17 -24 c15 -20 22 -23 60 -17 24 3 46 1 49 -4 9 -14 -30
-30 -74 -30 -52 0 -81 34 -81 95 0 84 89 127 146 70z m162 13 c21 -21 13 -29
-24 -26 -53 4 -52 -15 1 -46 37 -22 45 -32 45 -55 0 -39 -20 -53 -72 -49 -32
2 -44 8 -46 21 -3 15 2 17 36 11 49 -8 62 8 26 33 -40 27 -74 61 -74 73 0 37
81 65 108 38z"/>
<path d="M1790 3752 c-101 -38 -154 -85 -196 -176 -32 -68 -33 -190 -3 -256
42 -92 107 -151 203 -183 99 -34 173 -18 307 63 157 95 297 91 470 -13 129
-78 230 -86 348 -25 107 54 171 158 171 278 0 128 -62 233 -170 288 -124 63
-221 53 -363 -37 -93 -58 -155 -76 -246 -68 -76 6 -150 33 -232 83 -103 64
-199 79 -289 46z"/>
<path d="M3570 3756 c-65 -18 -106 -42 -150 -86 -158 -158 -107 -429 99 -524
69 -31 198 -30 266 3 192 95 246 347 108 501 -54 60 -97 88 -166 106 -62 16
-97 16 -157 0z"/>
<path d="M1600 2475 l0 -237 108 4 c92 3 115 7 157 29 69 35 108 99 113 184 5
76 -10 125 -52 173 -48 54 -104 75 -223 80 l-103 5 0 -238z"/>
<path d="M2270 2575 l0 -135 115 0 c134 0 174 12 205 62 30 47 23 118 -15 158
-35 37 -91 50 -209 50 l-96 0 0 -135z"/>
<path d="M2940 2576 l0 -136 118 0 c136 0 176 14 205 70 22 42 16 113 -11 143
-36 40 -73 51 -194 55 l-118 4 0 -136z"/>
<path d="M3610 2570 l0 -142 123 4 c141 5 175 17 202 74 21 45 16 115 -11 145
-38 42 -74 52 -196 57 l-118 4 0 -142z"/>
<path d="M3168 1979 c-13 -7 -18 -23 -18 -58 0 -50 9 -61 49 -61 48 0 70 86
29 114 -26 18 -36 19 -60 5z"/>
<path d="M3367 1913 c-4 -3 -7 -17 -7 -30 0 -19 5 -23 29 -23 32 0 56 22 47
45 -5 15 -56 21 -69 8z"/>
<path d="M3768 1968 l-23 -23 27 -3 c15 -2 42 -2 60 0 l33 3 -22 23 c-13 12
-30 22 -38 22 -8 0 -25 -10 -37 -22z"/>
</g>
</svg>
