<?xml version="1.0" standalone="no"?>
<!DOCTYPE svg PUBLIC "-//W3C//DTD SVG 20010904//EN"
 "http://www.w3.org/TR/2001/REC-SVG-20010904/DTD/svg10.dtd">
<svg version="1.0" xmlns="http://www.w3.org/2000/svg"
 width="1000.000000pt" height="1000.000000pt" viewBox="0 0 1000.000000 1000.000000"
 preserveAspectRatio="xMidYMid meet">
<metadata>
Created by potrace 1.16, written by Peter Selinger 2001-2019
</metadata>
<g transform="translate(0.000000,1000.000000) scale(0.100000,-0.100000)"
fill="#000000" stroke="none">
<path d="M4150 6585 c0 -300 3 -545 8 -545 8 0 1095 1067 1100 1081 2 5 -218
9 -552 9 l-556 0 0 -545z"/>
<path d="M5480 6614 c-289 -283 -585 -575 -658 -648 l-134 -133 653 -721 c359
-397 656 -722 661 -722 4 0 8 617 8 1370 0 754 -1 1370 -2 1370 -2 -1 -239
-233 -528 -516z"/>
<path d="M6199 7092 l-64 -38 0 -84 0 -84 64 -37 65 -37 68 36 68 37 0 85 0
85 -68 37 -68 37 -65 -37z"/>
<path d="M4232 5387 l-82 -82 0 -458 0 -457 551 0 c322 0 549 4 547 9 -4 11
-918 1065 -927 1069 -3 1 -43 -35 -89 -81z"/>
<path d="M1950 4056 c0 -33 1 -34 54 -40 96 -12 91 19 94 -500 2 -293 -1 -464
-7 -487 -12 -41 -43 -59 -101 -59 -39 0 -40 -1 -40 -35 l0 -35 220 0 220 0 0
35 c0 34 -1 35 -39 35 -85 0 -100 42 -101 275 l0 151 48 47 c26 26 50 47 54
47 3 0 101 -133 217 -295 l212 -295 135 0 134 0 0 34 0 34 -59 4 c-32 2 -70
12 -84 21 -14 9 -122 148 -241 309 l-215 293 42 44 c23 24 111 108 196 188
151 143 223 193 279 193 18 0 22 5 22 33 l0 32 -180 1 -180 1 0 -34 c0 -29 3
-33 26 -33 14 0 34 -5 45 -10 19 -11 19 -12 2 -40 -9 -16 -115 -124 -236 -241
l-219 -212 4 219 c4 257 7 268 83 279 43 7 45 9 45 41 l0 34 -215 0 -215 0 0
-34z"/>
<path d="M6731 3963 c-11 -10 -24 -32 -27 -50 -5 -27 -1 -37 25 -64 27 -26 37
-30 63 -25 47 9 68 33 68 77 0 68 -77 105 -129 62z"/>
<path d="M5599 3716 c-59 -12 -96 -32 -141 -74 l-28 -26 0 42 0 42 -75 0 -75
0 0 -405 0 -405 75 0 75 0 0 259 0 259 28 53 c52 100 162 142 258 100 64 -29
82 -46 110 -106 23 -48 24 -58 24 -307 l0 -258 69 0 69 0 4 263 c3 294 6 306
78 371 101 91 251 61 317 -63 22 -43 23 -51 23 -308 l0 -263 76 0 75 0 -3 298
-3 297 -28 57 c-33 68 -90 121 -165 155 -44 21 -70 26 -133 26 -69 0 -88 -5
-143 -32 -35 -17 -80 -49 -100 -71 l-36 -40 -32 36 c-78 88 -199 126 -319 100z"/>
<path d="M6710 3295 l0 -405 75 0 75 0 0 405 0 405 -75 0 -75 0 0 -405z"/>
<path d="M6990 3694 c0 -3 63 -92 140 -197 77 -106 140 -195 140 -198 0 -4
-65 -96 -144 -205 l-145 -199 81 -3 c45 -2 87 -1 93 2 7 2 54 62 105 133 51
70 96 132 100 136 4 5 53 -55 109 -132 l102 -141 91 0 90 0 -18 27 c-10 16
-72 102 -139 193 -66 91 -124 171 -129 178 -6 10 97 161 262 380 l24 32 -93 0
-94 -1 -90 -125 c-49 -69 -95 -129 -101 -135 -8 -6 -41 32 -109 126 l-98 135
-89 0 c-48 0 -88 -3 -88 -6z"/>
<path d="M7840 3666 l-55 -32 -7 -80 c-3 -43 -4 -82 -2 -86 2 -3 34 -22 70
-42 l65 -36 70 37 69 38 0 82 0 82 -63 36 c-35 19 -70 35 -78 35 -8 -1 -39
-16 -69 -34z"/>
<path d="M3402 3680 c-61 -13 -139 -58 -173 -101 -72 -91 -104 -205 -97 -350
6 -113 32 -181 98 -253 63 -68 137 -100 230 -101 91 0 135 15 200 66 45 35
110 111 110 128 0 4 -12 14 -27 23 -27 16 -28 16 -75 -27 -80 -71 -174 -92
-253 -56 -88 41 -135 127 -143 263 l-5 88 243 0 243 0 -5 74 c-10 147 -96 232
-253 249 -28 3 -69 1 -93 -3z m139 -101 c31 -22 59 -76 59 -113 l0 -26 -160 0
-160 0 10 25 c30 78 58 109 117 131 45 16 97 10 134 -17z"/>
<path d="M4241 3677 c-19 -6 -60 -35 -92 -65 l-59 -54 0 61 0 61 -31 0 c-17 0
-49 -11 -72 -24 -23 -14 -63 -30 -89 -37 -43 -10 -48 -14 -48 -40 0 -24 4 -29
25 -29 14 0 34 -9 45 -20 19 -19 20 -33 20 -273 0 -288 0 -287 -78 -287 -41 0
-42 -1 -42 -35 l0 -35 220 0 220 0 0 34 0 34 -71 4 c-55 3 -74 8 -85 23 -11
15 -14 65 -14 227 0 229 4 248 59 287 36 26 52 26 93 1 48 -29 93 -26 129 9
21 22 29 39 29 66 0 51 -13 70 -60 89 -46 18 -52 18 -99 3z"/>
<path d="M4695 3642 c-174 -86 -239 -169 -189 -240 33 -48 124 -16 124 44 0
80 79 142 165 130 72 -11 105 -62 105 -164 l0 -68 -130 -43 c-204 -67 -286
-133 -297 -236 -14 -122 87 -207 226 -190 60 7 124 32 170 65 l29 20 21 -35
c40 -68 122 -71 206 -7 49 37 63 66 51 99 -5 12 -11 11 -41 -7 -19 -12 -45
-20 -57 -18 l-23 3 -5 280 c-6 316 -7 323 -82 373 -34 22 -55 28 -117 30 -71
3 -81 1 -156 -36z m178 -594 c-65 -68 -182 -90 -228 -43 -19 18 -25 35 -25 69
0 77 58 126 205 171 l70 22 3 -95 c3 -92 2 -96 -25 -124z"/>
</g>
</svg>
