<?xml version="1.0" standalone="no"?>
<!DOCTYPE svg PUBLIC "-//W3C//DTD SVG 20010904//EN"
 "http://www.w3.org/TR/2001/REC-SVG-20010904/DTD/svg10.dtd">
<svg version="1.0" xmlns="http://www.w3.org/2000/svg"
 width="495.000000pt" height="619.000000pt" viewBox="0 0 495.000000 619.000000"
 preserveAspectRatio="xMidYMid meet">
<metadata>
Created by potrace 1.16, written by Peter Selinger 2001-2019
</metadata>
<g transform="translate(0.000000,619.000000) scale(0.100000,-0.100000)"
fill="#000000" stroke="none">
<path d="M0 3095 l0 -3095 2475 0 2475 0 0 3095 0 3095 -2475 0 -2475 0 0
-3095z m3330 270 c0 -22 4 -25 40 -25 l40 0 0 -40 0 -40 -40 0 -40 0 0 -79 c0
-84 4 -91 56 -91 22 0 24 -4 24 -50 0 -50 0 -50 -32 -50 -50 1 -114 34 -132
69 -11 20 -16 57 -16 115 l0 85 -32 3 c-30 3 -33 6 -36 41 -3 32 0 37 18 37
30 0 60 18 60 35 0 11 12 15 45 15 41 0 45 -2 45 -25z m-1522 -51 c21 -24 22
-34 22 -175 l0 -149 -45 0 -44 0 -3 122 c-3 123 -3 123 -30 136 -23 11 -32 10
-58 -3 l-30 -16 0 -120 0 -120 -47 3 -48 3 -3 173 -2 172 50 0 50 0 0 -41 0
-42 23 34 c41 61 121 72 165 23z m535 2 c27 -18 47 -45 47 -64 0 -5 -18 -17
-39 -27 -38 -17 -39 -17 -60 4 -27 27 -75 27 -101 1 -29 -29 -27 -94 5 -125
31 -32 60 -32 90 1 l23 25 41 -21 c35 -18 40 -23 31 -40 -29 -54 -115 -88
-180 -70 -173 47 -175 293 -2 339 37 10 113 -2 145 -23z m752 3 c18 -18 20
-35 23 -174 l3 -155 -45 0 -45 0 -3 122 c-3 123 -3 123 -30 136 -23 11 -32 10
-58 -3 l-30 -16 0 -119 0 -120 -50 0 -50 0 0 175 0 175 50 0 50 0 0 -37 0 -37
28 33 c43 52 114 61 157 20z m634 -6 c32 -23 58 -76 63 -123 l3 -35 -122 -3
-122 -3 11 -30 c19 -54 87 -67 128 -24 22 23 24 24 54 8 42 -21 41 -19 22 -49
-37 -55 -155 -73 -226 -33 -96 54 -108 201 -24 281 52 48 154 54 213 11z
m-2699 12 c26 -13 60 -50 60 -65 0 -3 -14 -14 -31 -24 -30 -18 -31 -18 -49 2
-26 28 -55 35 -80 22 -37 -20 -20 -43 46 -61 81 -22 99 -33 114 -68 16 -41 2
-80 -40 -108 -62 -43 -201 -26 -230 27 -8 15 -5 24 17 44 l27 25 29 -25 c38
-32 107 -31 107 2 0 18 -27 31 -89 45 -34 7 -57 19 -71 36 -35 45 -22 115 28
146 34 21 123 22 162 2z m365 0 c48 -23 55 -50 55 -200 l0 -135 -45 0 -45 0 0
36 0 37 -20 -26 c-26 -33 -79 -48 -124 -36 -41 11 -64 36 -72 76 -10 51 34 89
130 113 44 11 81 22 84 25 10 10 -9 36 -33 45 -30 11 -87 -8 -102 -35 -9 -15
-12 -15 -41 2 -18 10 -32 23 -32 28 1 18 34 54 65 69 39 20 138 20 180 1z
m1291 -4 c36 -22 74 -93 74 -139 l0 -32 -120 0 c-132 0 -144 -7 -95 -55 31
-32 78 -33 109 -2 21 21 25 22 57 9 43 -18 43 -17 29 -41 -24 -46 -126 -78
-191 -61 -141 38 -171 244 -47 320 44 27 141 27 184 1z m1254 -18 l1 -38 30
38 c27 33 36 37 75 37 34 0 51 -6 69 -25 32 -32 31 -56 -3 -82 l-27 -20 -18
23 c-10 14 -28 24 -42 24 -67 0 -85 -36 -85 -170 l0 -100 -45 0 -45 0 0 175 0
175 45 0 45 0 0 -37z m-1934 -300 c-3 -8 -23 -13 -51 -13 l-45 0 0 141 0 141
30 -7 c16 -3 37 -2 47 4 17 9 18 1 21 -122 1 -72 0 -137 -2 -144z"/>
</g>
</svg>
