<?xml version="1.0" standalone="no"?>
<!DOCTYPE svg PUBLIC "-//W3C//DTD SVG 20010904//EN"
 "http://www.w3.org/TR/2001/REC-SVG-20010904/DTD/svg10.dtd">
<svg version="1.0" xmlns="http://www.w3.org/2000/svg"
 width="554.000000pt" height="554.000000pt" viewBox="0 0 554.000000 554.000000"
 preserveAspectRatio="xMidYMid meet">
<metadata>
Created by potrace 1.16, written by Peter Selinger 2001-2019
</metadata>
<g transform="translate(0.000000,554.000000) scale(0.100000,-0.100000)"
fill="#000000" stroke="none">
<path d="M2 2773 l3 -2768 2765 0 2765 0 0 2765 0 2765 -2768 3 -2767 2 2
-2767z m2048 1039 c36 -17 90 -45 120 -62 121 -67 232 -64 344 9 94 61 152 83
236 88 163 11 315 -82 389 -237 23 -49 26 -67 26 -165 0 -98 -3 -116 -26 -165
-91 -190 -300 -283 -492 -219 -34 11 -89 38 -122 59 -139 89 -261 91 -389 6
-121 -80 -238 -104 -351 -71 -307 88 -401 465 -171 683 88 84 166 113 291 108
67 -2 92 -8 145 -34z m1695 23 c123 -33 216 -108 272 -223 25 -52 28 -67 28
-167 0 -104 -2 -114 -33 -177 -38 -79 -121 -159 -202 -197 -48 -22 -69 -25
-160 -25 -99 -1 -109 1 -172 32 -121 60 -201 166 -229 306 -32 157 65 342 218
418 101 49 178 59 278 33z m-1864 -1082 c59 -26 125 -86 149 -134 40 -77 42
-205 4 -285 -28 -60 -93 -119 -158 -143 -49 -18 -78 -21 -206 -21 l-150 0 0
306 0 306 158 -4 c133 -3 164 -7 203 -25z m666 12 c103 -31 147 -95 141 -205
-3 -55 -9 -74 -32 -104 -15 -21 -43 -45 -62 -53 -19 -9 -34 -21 -34 -26 0 -7
81 -111 148 -189 14 -17 12 -18 -35 -18 l-51 0 -82 100 -81 100 -95 0 -94 0 0
-100 0 -100 -40 0 -40 0 0 305 0 305 153 0 c107 0 169 -5 204 -15z m666 1
c106 -32 151 -97 145 -206 -3 -55 -9 -74 -32 -104 -15 -21 -43 -45 -62 -53
-19 -9 -34 -21 -34 -25 0 -5 36 -54 80 -109 l81 -99 -49 0 -49 0 -83 100 -83
100 -93 0 -94 0 0 -100 0 -100 -40 0 -40 0 0 305 0 305 153 0 c102 0 169 -5
200 -14z m674 -1 c28 -8 63 -25 78 -37 83 -65 87 -231 8 -304 -50 -46 -89 -57
-230 -62 l-133 -4 0 -94 0 -94 -40 0 -40 0 0 305 0 305 153 0 c107 0 169 -5
204 -15z m-634 -765 c36 -29 45 -83 22 -127 -20 -36 -47 -48 -95 -41 l-29 4
-3 -70 c-2 -41 -7 -70 -13 -69 -10 3 -20 285 -11 308 2 5 26 11 53 13 38 2 56
-2 76 -18z m202 -4 c12 -17 15 -43 13 -92 l-3 -68 -57 -4 c-49 -2 -58 0 -72
20 -22 31 -20 45 9 73 16 17 35 25 60 25 33 0 35 2 25 21 -10 17 -17 20 -51
14 -31 -5 -39 -4 -39 8 0 19 15 25 62 26 29 1 41 -4 53 -23z m411 -1 c17 -17
24 -34 22 -53 -3 -26 -6 -27 -71 -32 l-68 -5 17 -24 c15 -20 22 -23 60 -17 47
6 66 -7 35 -23 -34 -19 -93 -13 -118 11 -34 32 -33 106 3 142 36 35 86 35 120
1z"/>
<path d="M1790 3752 c-101 -38 -154 -85 -196 -176 -32 -68 -33 -190 -3 -256
42 -92 107 -151 203 -183 99 -34 173 -18 307 63 92 56 165 75 250 66 70 -7
157 -39 224 -81 119 -76 226 -83 344 -23 229 116 229 450 1 566 -124 63 -221
53 -363 -37 -93 -58 -155 -76 -246 -68 -76 6 -150 33 -232 83 -103 64 -199 79
-289 46z"/>
<path d="M3570 3756 c-171 -48 -271 -205 -236 -373 48 -234 309 -338 503 -201
152 109 179 332 56 468 -54 60 -97 88 -166 106 -62 16 -97 16 -157 0z"/>
<path d="M1600 2476 l0 -238 108 4 c92 3 115 7 157 29 69 35 108 99 113 184 5
76 -10 125 -52 173 -47 54 -102 73 -223 80 l-103 5 0 -237z"/>
<path d="M2270 2576 l0 -136 115 0 c134 0 174 12 205 62 26 41 23 117 -6 149
-38 42 -74 52 -196 57 l-118 4 0 -136z"/>
<path d="M2940 2576 l0 -136 118 0 c136 0 176 14 205 70 22 42 16 113 -11 143
-36 40 -73 51 -194 55 l-118 4 0 -136z"/>
<path d="M3610 2570 l0 -142 123 4 c141 5 175 17 202 74 21 45 16 115 -11 145
-38 42 -74 52 -196 57 l-118 4 0 -142z"/>
</g>
</svg>
