<?xml version="1.0" standalone="no"?>
<!DOCTYPE svg PUBLIC "-//W3C//DTD SVG 20010904//EN"
 "http://www.w3.org/TR/2001/REC-SVG-20010904/DTD/svg10.dtd">
<svg version="1.0" xmlns="http://www.w3.org/2000/svg"
 width="519.000000pt" height="520.000000pt" viewBox="0 0 519.000000 520.000000"
 preserveAspectRatio="xMidYMid meet">

<g transform="translate(0.000000,520.000000) scale(0.100000,-0.100000)"
fill="#000000" stroke="none">
<path d="M1283 4046 c-97 -24 -183 -75 -258 -150 -121 -121 -172 -253 -162
-416 24 -382 414 -620 762 -465 28 13 81 43 119 69 92 60 153 81 246 80 99 0
165 -21 278 -90 154 -92 266 -122 401 -103 495 69 649 701 240 988 -100 71
-179 95 -304 96 -127 0 -195 -22 -336 -110 -120 -75 -171 -90 -283 -82 -95 6
-156 28 -270 97 -44 27 -108 59 -141 71 -75 26 -219 34 -292 15z m318 -145
c205 -106 241 -122 310 -137 139 -30 262 -5 390 78 35 23 93 55 129 72 60 29
73 31 175 31 102 0 115 -2 175 -31 334 -159 348 -619 23 -791 -126 -68 -274
-67 -403 0 -263 138 -303 151 -445 145 -80 -3 -100 -8 -165 -41 -41 -20 -104
-55 -140 -77 -120 -75 -234 -96 -355 -64 -123 31 -225 115 -282 232 -33 66
-38 85 -41 167 -7 149 31 246 135 346 94 91 173 120 309 116 98 -2 104 -4 185
-46z"/>
<path d="M3703 4049 c-117 -20 -222 -78 -309 -170 -117 -124 -165 -275 -142
-441 13 -96 39 -162 97 -245 102 -145 260 -227 441 -227 151 0 281 55 390 164
290 290 159 786 -237 903 -69 21 -176 28 -240 16z m247 -128 c109 -41 207
-140 252 -251 32 -80 32 -241 -1 -323 -115 -289 -493 -369 -717 -152 -56 55
-92 118 -118 204 -66 224 87 482 322 541 60 15 200 5 262 -19z"/>
<path d="M910 2195 l0 -417 198 4 c167 4 207 8 262 26 116 39 204 124 246 236
27 71 27 231 0 301 -29 76 -83 144 -150 187 -95 61 -136 70 -358 75 l-198 6 0
-418z m452 282 c120 -59 173 -157 166 -306 -5 -106 -38 -176 -108 -228 -69
-50 -124 -63 -277 -63 l-133 0 0 316 0 316 148 -4 c137 -3 151 -5 204 -31z"/>
<path d="M1820 2196 l0 -416 50 0 50 0 0 135 0 135 134 0 134 0 108 -135 109
-135 64 0 c49 0 61 3 54 13 -5 6 -57 71 -116 144 l-107 131 45 22 c100 48 144
122 145 241 0 128 -52 204 -172 252 -47 18 -79 21 -275 25 l-223 4 0 -416z
m470 287 c67 -36 90 -76 90 -159 0 -76 -26 -119 -90 -151 -40 -21 -58 -23
-207 -23 l-163 0 0 180 0 180 159 0 c154 0 160 -1 211 -27z"/>
<path d="M2730 2196 l0 -416 50 0 50 0 0 135 0 135 133 0 134 0 107 -135 108
-135 65 0 c62 0 65 1 51 18 -8 9 -54 67 -103 127 -49 61 -95 118 -103 127 -13
15 -9 19 36 42 94 48 142 128 142 237 0 89 -16 129 -75 186 -79 76 -113 85
-377 90 l-218 5 0 -416z m455 295 c45 -20 92 -70 101 -107 11 -43 -2 -133 -22
-162 -11 -15 -40 -37 -64 -49 -41 -21 -58 -23 -207 -23 l-163 0 0 180 0 180
158 0 c131 0 164 -4 197 -19z"/>
<path d="M3638 2604 c-5 -4 -8 -191 -8 -416 l0 -408 55 0 55 0 0 129 0 128
163 6 c180 6 239 19 305 67 80 58 119 186 92 300 -10 42 -24 65 -64 106 -75
77 -111 86 -376 91 -118 3 -218 2 -222 -3z m434 -104 c112 -31 162 -160 106
-270 -38 -73 -72 -84 -270 -88 l-168 -3 0 185 0 186 148 0 c81 0 164 -5 184
-10z"/>
<path d="M2836 1559 c-49 -39 -29 -87 54 -129 32 -16 41 -26 38 -43 -4 -26
-45 -35 -79 -17 -31 17 -50 -4 -26 -28 12 -12 34 -17 68 -17 41 0 54 4 70 24
37 46 17 87 -61 126 -42 21 -52 35 -38 52 13 16 42 17 69 3 15 -9 21 -7 26 6
16 42 -75 59 -121 23z"/>
<path d="M3110 1570 c-8 -5 -25 -7 -37 -3 l-23 5 0 -217 c0 -201 1 -216 18
-213 14 3 18 18 22 100 4 83 7 96 20 88 41 -26 120 1 145 50 33 64 11 156 -45
185 -33 17 -78 19 -100 5z m87 -45 c28 -20 39 -76 23 -114 -15 -37 -59 -56
-97 -44 -26 9 -28 14 -31 72 -2 49 1 68 14 82 21 23 62 25 91 4z"/>
<path d="M3368 1569 c-17 -7 -25 -16 -22 -24 4 -10 18 -12 56 -8 42 5 53 3 64
-12 25 -34 17 -45 -34 -45 -82 0 -125 -50 -98 -115 18 -42 67 -56 115 -32 17
9 31 11 31 6 0 -5 10 -9 21 -9 21 0 21 4 17 106 -3 97 -6 108 -27 125 -25 21
-78 24 -123 8z m110 -151 c4 -33 -33 -61 -75 -56 -22 2 -29 9 -31 31 -5 42 14
59 62 55 36 -3 41 -6 44 -30z"/>
<path d="M3665 1570 c-28 -11 -62 -49 -75 -84 -31 -83 48 -177 138 -162 45 7
86 44 71 63 -9 10 -17 9 -41 -8 -87 -63 -180 66 -97 135 36 31 51 32 90 9 23
-14 31 -15 41 -4 11 10 8 17 -15 37 -29 25 -73 31 -112 14z"/>
<path d="M3922 1566 c-85 -47 -81 -199 7 -235 57 -24 165 9 134 40 -8 8 -17 8
-31 0 -27 -14 -73 -13 -93 2 -15 11 -39 49 -39 61 0 3 43 6 95 6 94 0 95 0 95
24 0 86 -95 143 -168 102z m107 -52 c11 -15 18 -30 15 -35 -8 -13 -144 -11
-144 1 0 6 11 22 25 35 33 34 77 33 104 -1z"/>
<path d="M4166 1559 c-49 -39 -29 -87 54 -129 32 -16 41 -26 38 -43 -4 -26
-45 -35 -79 -17 -31 17 -50 -4 -26 -28 12 -12 34 -17 68 -17 41 0 54 4 70 24
37 46 17 87 -61 126 -42 21 -52 35 -38 52 13 16 42 17 69 3 15 -9 21 -7 26 6
16 42 -75 59 -121 23z"/>
</g>
</svg>
