<?xml version="1.0" standalone="no"?>
<!DOCTYPE svg PUBLIC "-//W3C//DTD SVG 20010904//EN"
 "http://www.w3.org/TR/2001/REC-SVG-20010904/DTD/svg10.dtd">
<svg version="1.0" xmlns="http://www.w3.org/2000/svg"
 width="300.000000pt" height="300.000000pt" viewBox="0 0 300.000000 300.000000"
 preserveAspectRatio="xMidYMid meet">
<metadata>
Created by potrace 1.16, written by Peter Selinger 2001-2019
</metadata>
<g transform="translate(0.000000,300.000000) scale(0.100000,-0.100000)"
fill="#000000" stroke="none">
<path d="M335 2183 c-23 -6 -62 -30 -92 -57 l-23 -19 0 36 0 37 -110 0 -110 0
0 -55 0 -55 45 7 46 6 -3 -387 -3 -387 -23 -18 c-33 -25 -27 -65 10 -69 44 -5
96 26 121 72 21 39 22 55 27 390 l5 348 42 38 c48 43 80 52 130 38 113 -31
150 -171 78 -294 -43 -73 -134 -142 -212 -159 -28 -6 -33 -11 -33 -36 0 -34
11 -36 84 -14 40 12 51 13 58 3 4 -7 35 -76 69 -153 76 -172 98 -211 146 -259
50 -50 146 -96 201 -96 41 0 42 1 42 34 0 29 -4 34 -28 39 -70 14 -141 123
-261 393 l-49 112 62 63 c49 50 66 77 80 123 41 130 -13 263 -126 310 -35 15
-129 20 -173 9z"/>
<path d="M920 1851 c-89 -19 -173 -88 -217 -178 -34 -71 -37 -193 -6 -264 29
-66 86 -124 151 -156 76 -37 194 -39 260 -4 110 57 179 156 189 270 6 67 7 69
34 73 l29 5 0 -176 c0 -97 4 -182 9 -189 5 -9 26 -12 67 -10 l59 3 5 215 c5
221 8 237 52 290 44 53 120 67 155 28 11 -13 24 -30 29 -38 5 -8 11 -123 14
-255 l5 -240 58 -3 57 -3 1 83 c4 286 13 382 40 419 47 66 136 89 177 46 42
-44 52 -98 52 -274 0 -185 9 -222 62 -249 17 -9 54 -16 84 -16 60 -1 97 18
122 62 l16 28 44 -30 c59 -41 120 -58 207 -58 171 0 317 97 319 213 1 61 -26
63 -52 4 -33 -74 -86 -113 -185 -138 -54 -13 -106 -3 -163 32 -39 24 -83 105
-90 166 l-6 48 116 2 c100 1 123 5 171 27 44 20 59 33 71 62 30 71 -6 138
-100 186 -57 30 -165 30 -222 0 -92 -47 -142 -113 -170 -224 -17 -65 -15 -133
7 -192 22 -61 -49 -153 -88 -113 -12 12 -15 53 -16 218 -2 182 -4 208 -22 244
-24 48 -80 82 -150 90 -66 9 -122 -7 -176 -49 l-44 -34 -37 34 c-79 71 -182
71 -287 -1 l-51 -35 0 40 0 41 -62 -7 c-35 -3 -66 -9 -70 -13 -4 -3 -8 -42
-10 -86 l-3 -80 -32 -3 c-29 -3 -35 2 -63 47 -35 57 -86 101 -145 125 -46 20
-145 28 -195 17z m140 -80 c73 -52 119 -186 100 -294 -36 -202 -205 -265 -300
-113 -31 51 -41 92 -41 170 1 200 123 320 241 237z m1658 4 c62 -52 68 -120
12 -147 -36 -18 -137 -24 -197 -12 -29 6 -30 8 -23 40 27 117 136 180 208 119z"/>
<path d="M512 985 c-58 -25 -69 -99 -23 -146 24 -24 38 -29 76 -29 38 0 52 5
76 29 48 48 31 128 -32 150 -41 14 -57 13 -97 -4z m108 -35 c42 -42 7 -120
-55 -120 -12 0 -34 9 -49 21 -53 42 -21 119 49 119 22 0 43 -8 55 -20z"/>
<path d="M2134 991 c-57 -24 -73 -113 -29 -156 35 -36 115 -36 150 0 33 32 34
93 3 129 -25 28 -89 42 -124 27z m101 -46 c14 -13 25 -33 25 -45 0 -32 -44
-70 -80 -70 -38 0 -80 39 -80 74 0 31 43 66 82 66 17 0 39 -10 53 -25z"/>
<path d="M2364 991 c-56 -24 -72 -108 -29 -155 32 -34 108 -37 149 -5 36 29
38 105 2 138 -27 25 -89 36 -122 22z m100 -42 c51 -40 16 -119 -53 -119 -65 0
-98 81 -49 123 27 23 69 22 102 -4z"/>
<path d="M2557 993 c-4 -3 -7 -46 -7 -95 0 -72 3 -88 15 -88 9 0 15 9 15 25 0
23 4 25 45 25 38 0 50 -5 70 -27 28 -33 45 -24 21 11 -14 23 -14 27 1 53 25
44 12 80 -35 92 -42 12 -115 14 -125 4z"/>
<path d="M86 977 c-12 -9 -17 -23 -14 -42 3 -27 7 -31 53 -38 89 -15 95 -17
95 -32 0 -37 -68 -45 -119 -14 -35 21 -47 20 -37 -6 13 -35 123 -48 164 -19
24 17 30 58 10 71 -7 4 -42 13 -78 18 -71 11 -87 32 -37 49 27 10 35 8 100
-19 11 -5 17 -3 17 5 0 36 -114 56 -154 27z"/>
<path d="M940 900 l0 -90 80 0 c64 0 80 3 80 15 0 12 -14 15 -65 15 -51 0 -65
3 -65 15 0 11 11 15 40 15 29 0 40 4 40 15 0 11 -11 15 -40 15 -38 0 -40 2
-40 30 0 29 2 30 48 32 73 2 75 2 80 16 3 9 -17 12 -77 12 l-81 0 0 -90z"/>
<path d="M1148 979 c-18 -10 -23 -35 -12 -63 3 -9 24 -17 52 -21 78 -10 92
-15 92 -30 0 -37 -68 -45 -119 -14 -35 21 -47 20 -37 -6 13 -35 123 -48 164
-19 25 17 29 56 8 73 -7 6 -41 14 -75 17 -67 8 -84 20 -56 41 25 17 59 17 96
-3 37 -19 49 -11 24 16 -14 15 -30 20 -69 20 -28 0 -59 -5 -68 -11z"/>
<path d="M1452 978 c-7 -7 -12 -21 -12 -32 0 -12 -7 -30 -15 -40 -20 -27 -19
-59 4 -80 14 -13 35 -16 100 -14 58 2 81 6 81 15 0 7 -4 13 -8 13 -5 0 -7 14
-4 30 3 23 0 30 -12 30 -9 0 -16 -8 -16 -20 0 -19 -4 -18 -44 12 -25 18 -47
39 -50 46 -8 19 23 27 47 13 26 -17 46 1 27 24 -15 18 -81 20 -98 3z"/>
<path d="M2776 971 c-36 -40 2 -81 76 -81 72 0 92 -28 37 -50 -23 -10 -39 -10
-70 -1 -21 6 -39 16 -39 21 0 6 -4 10 -10 10 -21 0 -9 -37 15 -48 32 -15 95
-15 129 -2 21 8 26 16 26 44 0 39 -7 43 -86 52 -61 8 -76 20 -49 41 24 17 53
16 89 -2 37 -20 57 -4 25 19 -34 23 -121 22 -143 -3z"/>
</g>
</svg>
