<?xml version="1.0" standalone="no"?>
<!DOCTYPE svg PUBLIC "-//W3C//DTD SVG 20010904//EN"
 "http://www.w3.org/TR/2001/REC-SVG-20010904/DTD/svg10.dtd">
<svg version="1.0" xmlns="http://www.w3.org/2000/svg"
 width="554.000000pt" height="554.000000pt" viewBox="0 0 554.000000 554.000000"
 preserveAspectRatio="xMidYMid meet">

<g transform="translate(0.000000,554.000000) scale(0.100000,-0.100000)"
fill="#000000" stroke="none">
<path d="M1095 3471 l-60 -6 0 -290 0 -290 130 0 c113 1 136 4 180 23 90 41
144 112 165 214 29 143 -37 283 -154 327 -58 22 -173 31 -261 22z m210 -62
c97 -27 149 -134 126 -262 -15 -87 -54 -145 -120 -179 -45 -24 -65 -28 -132
-28 l-79 0 2 232 3 233 30 6 c49 11 127 10 170 -2z"/>
<path d="M1619 3451 c-20 -16 -22 -23 -14 -47 9 -24 16 -29 45 -29 29 0 36 5
45 29 8 24 6 31 -14 47 -13 10 -27 19 -31 19 -4 0 -18 -9 -31 -19z"/>
<path d="M2263 3454 c-64 -32 -63 -25 -63 -618 0 -589 0 -590 59 -620 26 -14
101 -16 591 -16 615 0 603 -1 635 60 23 45 23 1106 -1 1151 -30 59 -30 59
-636 59 -482 0 -557 -2 -585 -16z m982 -279 l0 -100 -290 -5 -290 -5 -5 -335
-5 -335 -100 0 -100 0 -3 434 c-2 341 0 436 10 443 7 4 186 7 398 5 l385 -2 0
-100z m-11 -241 c24 -9 24 -189 0 -198 -20 -8 -348 -8 -368 0 -13 5 -16 24
-16 99 0 65 4 95 13 98 18 8 352 8 371 1z m11 -444 l0 -95 -195 0 -195 0 -3
84 c-2 46 -1 90 2 98 5 11 43 13 198 11 l193 -3 0 -95z"/>
<path d="M3710 3462 c-24 -7 -40 -33 -40 -64 0 -21 5 -28 19 -28 11 0 23 9 26
20 8 24 23 25 61 5 42 -22 80 -19 98 7 37 52 5 93 -34 46 -17 -21 -21 -22 -41
-9 -31 18 -71 29 -89 23z"/>
<path d="M1905 3349 c-17 -4 -44 -22 -60 -39 -26 -27 -30 -39 -30 -85 0 -66
16 -86 110 -131 39 -19 76 -42 83 -51 18 -25 15 -60 -8 -83 -23 -23 -94 -27
-147 -8 -29 10 -36 10 -44 -2 -21 -33 -6 -55 46 -68 134 -34 245 27 245 135 0
55 -36 98 -110 130 -94 42 -117 75 -84 121 12 18 25 22 65 22 28 0 59 -5 71
-11 24 -13 26 -11 34 27 5 28 3 31 -34 42 -45 14 -93 14 -137 1z"/>
<path d="M3732 3299 c-24 -12 -46 -28 -49 -35 -9 -25 -23 -15 -23 16 0 28 -3
30 -35 30 l-35 0 0 -204 c0 -112 3 -211 6 -220 4 -10 18 -16 40 -16 l34 0 0
140 c0 154 10 194 53 223 30 20 95 22 118 4 35 -27 43 -61 47 -215 l4 -153 37
3 36 3 -1 167 c-1 144 -4 171 -20 199 -43 73 -134 98 -212 58z"/>
<path d="M4215 3305 c-142 -50 -183 -270 -71 -381 100 -101 271 -74 335 51 34
65 35 169 3 231 -50 98 -158 137 -267 99z m131 -56 c84 -40 117 -152 72 -239
-73 -142 -249 -106 -274 56 -11 75 34 161 101 190 41 18 52 17 101 -7z"/>
<path d="M1615 3298 c-3 -8 -4 -106 -3 -218 l3 -205 38 -3 37 -3 -2 218 -3
218 -33 3 c-20 2 -34 -2 -37 -10z"/>
<path d="M3670 2783 c-23 -9 -30 -24 -30 -70 0 -27 -5 -43 -12 -44 -7 -1 -22
-2 -33 -3 -15 -1 -20 -8 -20 -31 0 -23 5 -30 20 -31 11 -1 26 -2 33 -3 9 -1
12 -35 12 -133 0 -141 9 -192 39 -230 16 -19 28 -23 83 -23 l63 0 3 32 c3 31
2 32 -40 35 -60 4 -68 25 -68 173 0 66 4 125 8 132 4 6 30 13 57 15 48 3 50 4
50 33 0 30 -1 30 -57 33 l-58 3 0 59 c0 62 -7 69 -50 53z"/>
<path d="M1556 2768 c-5 -16 -36 -468 -36 -520 0 -35 2 -38 29 -38 17 0 32 4
35 8 2 4 10 110 17 235 7 125 15 225 17 223 2 -3 37 -105 79 -228 41 -122 79
-226 85 -229 6 -4 18 -5 27 -4 9 2 19 4 22 4 4 1 44 105 89 231 46 127 84 229
86 227 2 -1 8 -97 14 -212 14 -261 13 -255 50 -255 16 0 31 4 34 8 9 15 -30
542 -41 553 -6 6 -28 9 -49 7 l-39 -3 -42 -110 c-23 -60 -59 -161 -80 -222
-20 -62 -40 -113 -43 -113 -3 1 -31 81 -63 178 -32 97 -68 197 -80 222 -20 42
-25 45 -65 48 -28 2 -44 -1 -46 -10z"/>
<path d="M4095 2673 c-30 -6 -95 -35 -95 -42 1 -18 28 -52 34 -43 3 5 28 15
56 22 68 16 115 1 138 -46 21 -45 10 -55 -69 -66 -76 -10 -135 -42 -167 -88
-19 -28 -23 -44 -19 -83 6 -66 46 -107 110 -114 57 -7 84 0 130 31 l37 25 0
-24 c0 -22 4 -25 35 -25 l35 0 0 151 c0 175 -11 229 -52 264 -43 37 -111 52
-173 38z m129 -245 c10 -40 -5 -95 -34 -123 -61 -59 -150 -33 -150 44 0 60 53
98 141 100 30 1 38 -3 43 -21z"/>
</g>
</svg>
