<?xml version="1.0" standalone="no"?>
<!DOCTYPE svg PUBLIC "-//W3C//DTD SVG 20010904//EN"
 "http://www.w3.org/TR/2001/REC-SVG-20010904/DTD/svg10.dtd">
<svg version="1.0" xmlns="http://www.w3.org/2000/svg"
 width="1200.000000pt" height="431.000000pt" viewBox="0 0 1200.000000 431.000000"
 preserveAspectRatio="xMidYMid meet">
<metadata>
Created by potrace 1.16, written by Peter Selinger 2001-2019
</metadata>
<g transform="translate(0.000000,431.000000) scale(0.100000,-0.100000)"
fill="#000000" stroke="none">
<path d="M175 4138 c-3 -7 -4 -911 -3 -2008 l3 -1995 954 -3 c696 -1 957 1
967 9 19 16 21 3978 2 3997 -18 18 -1917 17 -1923 0z m1260 -949 c290 -59 455
-211 525 -483 23 -91 25 -125 8 -131 -15 -5 -458 -35 -522 -35 l-44 0 -21 70
c-25 80 -71 139 -133 171 -76 39 -216 41 -286 5 -68 -35 -106 -119 -82 -181
27 -72 69 -92 323 -156 395 -99 576 -181 697 -317 221 -247 194 -676 -57 -928
-103 -103 -256 -178 -424 -208 -278 -49 -622 -16 -816 79 -192 94 -330 310
-371 578 -6 39 -6 60 2 66 6 5 128 16 271 26 143 9 265 18 271 20 22 7 35 -13
49 -73 30 -129 90 -213 183 -259 51 -25 67 -28 162 -28 94 0 110 3 155 26 60
32 78 50 104 109 37 81 21 161 -45 226 -49 49 -143 88 -320 133 -553 140 -779
351 -761 711 7 158 63 284 173 394 127 127 284 185 564 210 90 8 297 -5 395
-25z"/>
<path d="M2305 4138 c-3 -7 -4 -911 -3 -2008 l3 -1995 1183 0 1183 0 0 2005 0
2005 -1181 3 c-939 2 -1182 0 -1185 -10z m1241 -937 c115 -24 192 -62 268
-131 75 -70 131 -155 158 -243 17 -57 20 -87 16 -168 -5 -92 -8 -106 -46 -183
-51 -102 -106 -159 -257 -267 -63 -46 -115 -87 -115 -93 0 -6 11 -19 24 -31
13 -11 76 -65 140 -119 l117 -99 33 32 c43 41 120 173 169 286 21 50 40 91 42
93 3 4 356 -207 374 -224 12 -11 8 -26 -28 -100 -52 -110 -123 -227 -207 -344
-44 -61 -62 -95 -57 -104 5 -8 106 -119 226 -246 l218 -230 -367 2 -368 3 -33
45 c-19 25 -44 58 -56 73 l-22 28 -69 -47 c-159 -107 -298 -152 -501 -161
-147 -6 -296 8 -407 38 -218 61 -389 226 -443 429 -19 73 -19 217 1 294 47
184 194 346 412 455 l63 32 -45 62 c-61 87 -113 195 -132 275 -20 83 -14 223
12 302 54 161 210 295 397 341 104 25 360 25 483 0z"/>
<path d="M3256 2796 c-86 -24 -133 -99 -112 -182 10 -37 114 -144 141 -144 55
0 176 109 194 177 14 50 14 59 -5 94 -27 53 -130 79 -218 55z"/>
<path d="M3009 1812 c-54 -56 -68 -77 -78 -120 -24 -98 7 -173 93 -227 44 -27
59 -30 143 -33 87 -4 97 -2 159 27 36 17 78 40 94 51 l29 20 -175 175 c-96 96
-180 175 -187 175 -6 0 -41 -31 -78 -68z"/>
<path d="M4870 4131 c-14 -27 -14 -3955 0 -3982 10 -19 32 -19 963 -19 728 0
956 3 965 12 9 9 12 466 12 1994 0 1090 -3 1989 -6 1998 -6 14 -100 16 -965
16 -937 0 -959 0 -969 -19z m1390 -980 c239 -72 361 -206 412 -451 24 -114 20
-316 -7 -415 -58 -209 -192 -356 -383 -419 -110 -36 -188 -46 -447 -54 l-230
-7 -5 -395 -5 -395 -305 0 -305 0 -3 1074 c-2 853 0 1076 10 1083 7 5 279 7
603 5 579 -3 591 -4 665 -26z"/>
<path d="M5604 2727 c-2 -7 -3 -114 -2 -237 l3 -225 134 -3 c165 -3 224 11
280 67 73 73 89 187 40 287 -44 92 -129 124 -326 124 -91 0 -125 -3 -129 -13z"/>
<path d="M7050 2291 c-131 -47 -171 -180 -82 -269 21 -20 75 -57 120 -81 128
-69 159 -119 108 -178 -23 -26 -29 -28 -98 -28 -52 1 -86 7 -120 22 -25 12
-49 19 -52 15 -3 -3 -6 -24 -6 -48 0 -41 1 -43 47 -60 63 -24 173 -25 235 -1
125 48 154 186 59 277 -20 20 -71 53 -112 74 -97 50 -129 81 -129 121 0 71
103 106 206 71 26 -9 51 -16 56 -16 4 0 8 20 8 45 0 55 -15 65 -113 71 -55 4
-85 0 -127 -15z"/>
<path d="M8517 2300 c-62 -16 -112 -47 -155 -95 -56 -64 -77 -129 -77 -240 0
-82 3 -97 33 -158 54 -110 137 -160 268 -161 71 -1 87 3 139 29 108 55 165
164 165 313 0 131 -64 244 -166 292 -52 24 -151 34 -207 20z m158 -99 c79 -36
116 -107 116 -224 0 -78 -13 -129 -49 -176 -63 -85 -209 -94 -290 -18 -88 82
-95 273 -14 369 54 64 158 86 237 49z"/>
<path d="M11445 2297 c-67 -23 -101 -44 -143 -92 -56 -64 -77 -129 -77 -240 0
-76 5 -99 26 -145 31 -66 85 -122 148 -152 71 -35 186 -32 266 8 115 57 172
174 163 336 -7 128 -61 215 -166 268 -55 27 -161 35 -217 17z m156 -88 c83
-28 129 -111 129 -233 0 -96 -15 -144 -59 -187 -74 -75 -203 -78 -279 -6 -50
46 -67 95 -67 192 0 97 17 146 67 192 52 49 137 66 209 42z"/>
<path d="M7433 2293 c-10 -4 -13 -76 -13 -314 l0 -309 23 -11 c15 -7 31 -7 50
0 l27 11 0 295 c0 185 -4 304 -10 316 -10 18 -48 24 -77 12z"/>
<path d="M7673 2293 c-10 -4 -13 -77 -13 -318 l0 -313 26 -6 c14 -4 34 -4 45
-1 18 6 19 21 21 251 l3 244 155 -241 c86 -134 165 -246 177 -251 12 -6 38 -7
57 -4 l36 7 0 314 0 315 -24 6 c-14 3 -33 4 -43 2 -17 -3 -18 -21 -23 -251
l-5 -247 -144 228 c-79 125 -153 237 -164 250 -20 21 -71 29 -104 15z"/>
<path d="M9002 2288 c-9 -9 -12 -93 -12 -315 l0 -303 25 -10 c16 -6 34 -6 50
0 24 9 24 11 27 142 l3 133 145 0 145 0 3 -136 3 -137 25 -6 c14 -4 34 -4 45
-1 18 6 19 20 19 320 l0 315 -24 6 c-14 3 -34 3 -45 -1 -20 -6 -21 -14 -21
-135 0 -154 15 -142 -170 -138 l-125 3 -3 124 c-1 71 -7 130 -14 138 -13 16
-60 17 -76 1z"/>
<path d="M9564 2286 c-3 -7 38 -100 90 -205 l96 -193 0 -109 c0 -99 2 -109 20
-119 22 -12 60 -4 72 14 4 6 8 60 8 119 l0 109 93 176 c50 98 92 186 92 197 0
23 -42 33 -72 16 -10 -5 -49 -73 -88 -150 -38 -77 -72 -140 -75 -140 -3 0 -32
57 -65 126 -75 158 -86 173 -131 173 -20 0 -37 -6 -40 -14z"/>
<path d="M10133 2294 c-10 -4 -13 -78 -13 -319 l0 -313 23 -6 c36 -9 159 -7
222 5 115 21 202 87 247 184 18 41 22 67 22 145 0 111 -13 147 -74 214 -63 68
-124 88 -285 92 -71 2 -136 1 -142 -2z m304 -112 c78 -40 109 -108 101 -222
-11 -147 -98 -220 -265 -220 l-63 0 0 228 c0 126 3 232 8 236 4 5 45 6 92 4
61 -3 97 -10 127 -26z"/>
<path d="M10753 2294 c-10 -4 -13 -78 -13 -319 l0 -313 26 -6 c14 -4 34 -4 45
-1 17 6 19 19 21 133 l3 127 35 3 c58 4 91 -26 164 -146 36 -60 73 -113 82
-116 21 -8 84 3 84 15 0 11 -138 229 -161 255 -25 26 -25 26 15 48 75 40 105
162 57 239 -38 63 -86 80 -226 84 -66 1 -126 0 -132 -3z m244 -103 c37 -23 50
-66 33 -116 -17 -52 -91 -83 -164 -69 l-36 6 0 92 c0 51 3 96 7 99 15 16 128
7 160 -12z"/>
<path d="M8148 1497 c-145 -41 -226 -173 -216 -351 10 -181 120 -297 286 -300
105 -1 158 18 223 83 71 72 94 132 94 251 0 145 -52 243 -157 296 -61 31 -162
40 -230 21z m206 -110 c62 -48 80 -96 81 -213 0 -95 -2 -103 -30 -149 -36 -59
-88 -88 -164 -93 -76 -5 -135 26 -176 93 -28 46 -30 55 -30 150 0 95 2 104 30
150 43 70 99 98 186 93 54 -3 73 -9 103 -31z"/>
<path d="M9760 1497 c-94 -27 -163 -88 -206 -182 -23 -51 -28 -73 -28 -150 0
-76 4 -99 26 -147 53 -115 147 -172 283 -172 116 0 175 29 175 86 0 34 11 33
-111 7 -172 -36 -291 74 -276 258 13 171 158 263 323 207 54 -18 67 -11 62 37
-2 26 -10 37 -31 47 -40 19 -163 24 -217 9z"/>
<path d="M6957 1493 c-4 -3 -7 -147 -7 -319 l0 -314 24 -6 c14 -3 34 -3 45 1
19 6 21 15 23 118 l3 112 75 6 c86 7 113 16 159 55 64 53 89 161 57 237 -20
49 -77 93 -136 106 -55 12 -233 15 -243 4z m238 -98 c63 -26 76 -121 26 -177
-28 -32 -32 -33 -103 -33 l-73 0 -3 99 c-1 55 0 106 2 113 7 18 107 17 151 -2z"/>
<path d="M7457 1493 c-4 -3 -7 -147 -7 -319 l0 -314 24 -6 c14 -3 34 -3 45 1
19 6 21 15 23 133 l3 127 32 3 c48 5 84 -20 123 -83 107 -173 113 -180 150
-183 69 -5 68 6 -6 129 -38 61 -81 125 -95 140 l-26 28 35 23 c57 37 76 70 80
141 3 52 0 67 -20 96 -31 45 -66 70 -114 81 -45 11 -237 13 -247 3z m243 -98
c54 -28 57 -117 5 -162 -22 -19 -38 -23 -96 -23 l-69 0 0 100 0 100 65 0 c39
0 78 -6 95 -15z"/>
<path d="M8555 1490 c-3 -6 39 -98 94 -206 l101 -195 0 -115 c0 -112 0 -114
24 -120 14 -3 34 -3 45 1 20 6 21 14 21 117 l0 111 101 194 c55 107 98 201 95
209 -4 11 -17 14 -43 12 -38 -3 -38 -3 -118 -153 l-79 -149 -66 135 c-36 75
-71 144 -79 153 -15 18 -86 22 -96 6z"/>
<path d="M9120 1481 c-14 -27 -14 -585 0 -612 10 -17 23 -19 163 -19 84 0 158
4 165 9 8 5 12 22 10 42 l-3 34 -123 3 -123 3 3 97 3 97 99 3 c102 3 126 11
126 43 0 35 -38 49 -137 49 l-93 0 0 90 0 89 118 3 117 3 0 40 0 40 -157 3
c-147 2 -158 1 -168 -17z"/>
<path d="M10054 1486 c-3 -8 -4 -27 -2 -43 3 -28 3 -28 88 -33 l85 -5 3 -272
2 -273 24 -6 c14 -3 34 -3 45 1 21 6 21 12 21 281 l0 274 85 0 c80 0 86 1 96
24 8 17 8 29 0 45 -11 20 -18 21 -227 21 -176 0 -216 -3 -220 -14z"/>
<path d="M10716 1478 c-8 -13 -65 -155 -126 -317 -119 -310 -119 -311 -60
-311 39 0 48 11 79 96 l29 79 119 3 c89 2 123 -1 130 -10 5 -7 20 -41 33 -76
27 -75 42 -92 78 -92 61 0 61 -1 -63 321 -64 167 -121 309 -127 316 -18 22
-76 16 -92 -9z m96 -242 c21 -59 37 -110 35 -113 -3 -2 -43 -3 -89 -1 l-85 3
46 124 c25 68 47 118 49 110 2 -8 22 -63 44 -123z"/>
<path d="M7047 606 c-79 -29 -127 -101 -127 -190 0 -66 12 -101 48 -140 51
-54 136 -71 207 -42 36 15 40 22 27 43 -5 8 -19 9 -54 1 -105 -24 -168 26
-168 135 0 117 64 167 183 144 30 -6 39 -5 43 8 4 9 0 23 -7 30 -22 21 -108
27 -152 11z"/>
<path d="M7361 607 c-99 -32 -151 -175 -102 -283 46 -102 183 -136 268 -67 53
42 73 87 73 160 0 99 -28 149 -105 184 -44 21 -83 22 -134 6z m135 -64 c48
-31 64 -146 30 -211 -36 -68 -133 -79 -191 -22 -28 28 -30 35 -30 104 0 60 4
80 21 103 37 49 116 61 170 26z"/>
<path d="M8094 606 c-40 -18 -74 -62 -74 -95 0 -39 24 -68 101 -117 78 -50 90
-80 44 -110 -25 -16 -38 -16 -118 2 -26 6 -28 4 -25 -17 10 -70 175 -63 212
10 32 61 13 99 -81 161 -51 34 -69 51 -71 71 -5 44 35 59 123 47 32 -5 27 44
-5 53 -39 11 -72 9 -106 -5z"/>
<path d="M8405 608 c-74 -26 -125 -106 -125 -197 0 -77 36 -139 102 -172 126
-64 258 28 258 181 0 73 -17 117 -59 153 -51 42 -117 56 -176 35z m131 -65
c47 -30 64 -148 30 -211 -44 -84 -172 -79 -211 8 -23 50 -17 139 12 178 36 49
115 61 169 25z"/>
<path d="M9096 606 c-86 -32 -132 -112 -124 -216 5 -68 39 -122 99 -153 42
-22 152 -18 176 6 20 20 9 52 -14 43 -44 -17 -101 -18 -136 -1 -44 21 -67 66
-67 135 0 109 67 160 183 137 30 -6 39 -5 43 8 4 9 0 23 -7 30 -22 21 -108 27
-153 11z"/>
<path d="M9546 610 c-99 -30 -156 -179 -107 -285 22 -48 44 -69 94 -90 128
-53 247 36 247 185 0 93 -36 153 -113 185 -40 16 -76 18 -121 5z m130 -67 c48
-31 64 -146 30 -211 -35 -68 -136 -79 -192 -21 -24 25 -29 39 -32 97 -3 58 0
72 20 102 38 56 116 71 174 33z"/>
<path d="M10086 606 c-47 -18 -94 -61 -112 -103 -23 -54 -18 -149 11 -199 42
-71 137 -102 226 -73 19 6 40 19 47 27 12 16 17 128 6 156 -9 23 -122 23 -131
0 -7 -20 13 -34 50 -34 25 0 27 -3 27 -45 0 -34 -5 -47 -19 -55 -45 -24 -127
0 -157 45 -23 35 -24 129 -1 172 10 18 32 40 50 49 35 19 104 22 133 6 25 -12
44 -5 44 18 0 40 -105 61 -174 36z"/>
<path d="M10650 604 c-45 -19 -69 -51 -70 -91 0 -41 36 -84 105 -123 58 -33
73 -57 55 -90 -15 -27 -53 -35 -106 -20 -49 14 -69 6 -58 -23 8 -23 69 -40
121 -34 63 7 103 46 103 102 0 50 -16 69 -98 119 -66 40 -79 65 -53 97 17 21
52 26 116 17 14 -2 21 3 23 18 2 17 -5 24 -29 33 -42 14 -67 13 -109 -5z"/>
<path d="M11216 605 c-57 -20 -94 -61 -112 -123 -51 -174 99 -316 253 -241 65
31 96 90 95 179 -1 105 -44 168 -128 189 -53 14 -60 13 -108 -4z m134 -64 c67
-47 64 -201 -4 -246 -118 -78 -238 51 -180 194 30 76 116 100 184 52z"/>
<path d="M7654 597 c-2 -7 -3 -91 -2 -187 l3 -175 25 0 25 0 5 136 5 136 95
-136 c79 -113 99 -136 120 -136 l25 0 0 185 c0 183 0 185 -22 188 -30 4 -35
-19 -31 -161 2 -64 2 -117 1 -117 -1 0 -45 63 -98 140 -80 117 -100 140 -121
140 -13 0 -27 -6 -30 -13z"/>
<path d="M8696 594 c-9 -24 -7 -337 3 -352 5 -8 17 -12 27 -10 16 3 19 14 22
76 l3 72 29 0 c31 0 50 -21 89 -97 23 -47 50 -66 71 -53 11 7 7 21 -20 72 -18
35 -39 70 -47 79 -12 14 -9 21 22 52 52 52 45 119 -17 157 -43 26 -172 29
-182 4z"/>
<path d="M9315 598 c-3 -8 -4 -92 -3 -188 l3 -175 25 0 25 0 0 185 c0 184 0
185 -23 188 -12 2 -24 -3 -27 -10z"/>
<path d="M10337 604 c-4 -4 -7 -89 -7 -190 l0 -182 45 -7 c61 -9 155 4 162 22
9 22 -4 28 -80 33 l-72 5 -3 52 c-3 52 -3 52 30 57 18 3 49 7 68 8 23 2 35 8
35 18 0 11 -13 16 -45 18 -89 5 -91 6 -88 65 l3 52 70 5 c62 4 70 7 70 25 0
18 -8 20 -90 23 -50 1 -94 0 -98 -4z"/>
<path d="M10824 596 c-10 -25 5 -36 51 -36 l45 0 2 -162 3 -163 25 0 25 0 5
160 5 160 45 5 c37 4 45 9 45 25 0 19 -8 20 -123 23 -101 2 -123 0 -128 -12z"/>
<path d="M11518 604 c-5 -4 -8 -90 -8 -191 l0 -183 25 0 c24 0 25 2 25 75 l0
75 28 0 c38 0 44 -6 86 -82 38 -69 53 -82 77 -68 11 7 9 19 -13 62 -15 29 -35
66 -45 81 -18 28 -17 29 3 46 52 42 58 105 15 153 -27 31 -34 33 -108 36 -43
2 -81 0 -85 -4z"/>
</g>
</svg>
