<?xml version="1.0" standalone="no"?>
<!DOCTYPE svg PUBLIC "-//W3C//DTD SVG 20010904//EN"
 "http://www.w3.org/TR/2001/REC-SVG-20010904/DTD/svg10.dtd">
<svg version="1.0" xmlns="http://www.w3.org/2000/svg"
 width="619.000000pt" height="523.000000pt" viewBox="0 0 619.000000 523.000000"
 preserveAspectRatio="xMidYMid meet">
<metadata>
Created by potrace 1.16, written by Peter Selinger 2001-2019
</metadata>
<g transform="translate(0.000000,523.000000) scale(0.100000,-0.100000)"
fill="#000000" stroke="none">
<path d="M0 2615 l0 -2615 3095 0 3095 0 0 2615 0 2615 -3095 0 -3095 0 0
-2615z m1710 511 c0 -757 0 -758 -70 -901 -66 -135 -145 -222 -275 -300 -68
-40 -199 -85 -251 -85 l-34 0 2 867 3 867 305 112 c168 61 308 112 313 113 4
1 7 -302 7 -673z m-760 -446 l0 -840 -26 0 c-48 0 -119 22 -209 65 -183 88
-314 249 -366 452 -17 70 -19 113 -19 509 l0 432 43 16 c204 77 554 204 565
205 9 1 12 -173 12 -839z m2190 129 c0 -66 3 -119 8 -117 81 42 107 50 147 44
65 -10 128 -55 156 -112 33 -68 33 -160 0 -227 -56 -115 -199 -152 -287 -75
l-34 30 0 -31 c0 -31 -1 -31 -50 -31 l-50 0 0 320 0 320 55 0 55 0 0 -121z
m-216 -79 c23 -8 26 -15 26 -61 0 -45 -2 -50 -17 -43 -43 18 -98 16 -126 -6
l-27 -21 0 -155 0 -154 -60 0 -60 0 0 220 0 220 55 0 c50 0 55 -2 55 -22 0
-20 1 -20 18 -5 37 34 91 45 136 27z m914 -18 c21 -10 47 -36 59 -58 21 -36
23 -52 23 -201 l0 -163 -50 0 c-49 0 -50 0 -50 31 l0 31 -35 -30 c-61 -54
-172 -53 -224 2 -14 15 -25 42 -28 68 -9 78 52 123 210 158 61 14 73 32 40 63
-43 38 -125 28 -162 -19 l-20 -25 -41 26 -41 26 20 25 c69 88 200 117 299 66z
m510 2 c15 -9 39 -32 52 -52 24 -34 25 -44 28 -204 l3 -168 -60 0 -61 0 0 148
c0 146 0 149 -26 173 -37 35 -98 33 -130 -4 -23 -27 -24 -35 -24 -173 l0 -144
-60 0 -60 0 0 220 0 220 55 0 c53 0 55 -1 55 -27 0 -24 1 -25 18 -10 53 48
149 58 210 21z m438 11 c97 -29 149 -103 149 -215 0 -64 -4 -82 -28 -122 -64
-109 -217 -139 -328 -66 -20 13 -46 46 -62 78 -25 48 -28 63 -24 122 10 161
138 249 293 203z m982 -13 c72 -37 77 -52 80 -248 l3 -174 -50 0 c-50 0 -51 1
-51 30 l0 30 -21 -21 c-69 -69 -203 -63 -249 13 -25 42 -25 74 0 116 23 38 72
63 175 88 39 9 73 20 77 23 12 10 -21 51 -49 62 -38 14 -90 0 -123 -33 l-29
-29 -35 23 c-20 13 -36 28 -36 35 0 20 89 91 128 102 51 14 136 6 180 -17z
m-3498 -119 c0 -91 5 -147 13 -163 18 -37 62 -55 106 -44 58 15 71 52 71 212
l0 132 55 0 55 0 0 -220 0 -220 -55 0 c-53 0 -55 1 -55 26 l0 26 -30 -26 c-78
-65 -208 -35 -255 59 -17 33 -21 65 -23 183 -2 78 -1 149 2 157 4 11 21 15 61
15 l55 0 0 -137z m2864 -15 c28 -82 53 -148 56 -148 3 0 21 44 39 98 19 53 43
121 53 150 l19 52 60 0 c41 0 59 -4 59 -12 -1 -7 -38 -105 -84 -218 l-82 -205
-65 -3 -65 -3 -83 208 c-46 114 -85 214 -88 221 -4 10 10 12 62 10 l68 -3 51
-147z"/>
<path d="M3185 2608 c-31 -28 -46 -84 -34 -135 11 -52 49 -83 100 -83 22 0 49
5 60 10 62 34 65 174 4 214 -36 24 -99 20 -130 -6z"/>
<path d="M4643 2606 c-26 -22 -28 -30 -28 -95 0 -58 4 -74 20 -91 43 -42 122
-42 160 0 42 46 26 172 -24 200 -36 19 -98 12 -128 -14z"/>
</g>
</svg>
