<?xml version="1.0" standalone="no"?>
<!DOCTYPE svg PUBLIC "-//W3C//DTD SVG 20010904//EN"
 "http://www.w3.org/TR/2001/REC-SVG-20010904/DTD/svg10.dtd">
<svg version="1.0" xmlns="http://www.w3.org/2000/svg"
 width="553.000000pt" height="554.000000pt" viewBox="0 0 553.000000 554.000000"
 preserveAspectRatio="xMidYMid meet">
<metadata>
Created by potrace 1.16, written by Peter Selinger 2001-2019
</metadata>
<g transform="translate(0.000000,554.000000) scale(0.100000,-0.100000)"
fill="#000000" stroke="none">
<path d="M3721 4156 c-33 -18 -50 -53 -51 -101 0 -50 22 -83 67 -101 80 -34
153 18 153 108 0 41 -5 54 -29 79 -24 23 -38 29 -73 29 -24 -1 -54 -7 -67 -14z"/>
<path d="M1347 4050 c-87 -22 -162 -82 -191 -152 -21 -50 -20 -134 3 -184 35
-78 92 -113 233 -145 106 -25 143 -41 158 -70 17 -30 -11 -66 -56 -75 -84 -16
-175 23 -216 92 l-20 34 -69 -61 c-38 -34 -69 -67 -69 -74 0 -25 59 -92 103
-118 189 -111 486 -52 554 110 32 77 4 188 -58 236 -47 35 -90 51 -202 77
-149 34 -201 82 -140 130 23 18 38 21 85 18 65 -5 117 -38 146 -93 l17 -35 70
46 c39 26 74 50 78 54 12 11 -35 99 -70 132 -52 50 -136 80 -232 84 -47 2
-103 -1 -124 -6z"/>
<path d="M2147 4049 c-107 -25 -203 -103 -236 -191 -10 -26 -7 -29 70 -77 44
-28 82 -51 84 -51 3 0 5 10 5 21 0 33 69 95 120 109 101 27 200 -15 200 -85
l0 -31 -114 -22 c-284 -55 -379 -121 -379 -261 0 -86 40 -153 118 -194 32 -18
57 -22 130 -22 81 0 95 3 143 29 38 21 61 44 80 75 l27 46 3 -77 3 -78 110 0
110 0 -3 313 -3 312 -31 55 c-36 63 -91 103 -175 125 -59 16 -202 18 -262 4z
m226 -562 c-25 -44 -97 -80 -146 -74 -72 9 -102 47 -81 102 9 23 58 46 154 70
l85 22 3 -44 c2 -29 -3 -55 -15 -76z"/>
<path d="M2772 3653 l3 -408 113 0 113 0 2 262 2 263 31 31 c55 55 163 59 210
8 18 -19 19 -42 22 -295 l3 -274 115 0 116 0 -4 323 c-5 342 -7 360 -56 426
-47 63 -143 86 -248 60 -56 -14 -136 -84 -169 -148 l-24 -46 -1 103 0 102
-115 0 -115 0 2 -407z"/>
<path d="M3670 3571 l0 -331 115 0 115 0 0 324 c-1 178 -4 326 -7 330 -3 3
-17 -4 -31 -14 -35 -28 -129 -28 -166 1 l-26 20 0 -330z"/>
<path d="M1845 3107 c-187 -49 -296 -198 -295 -405 1 -163 84 -299 225 -367
56 -27 68 -30 175 -30 105 0 120 2 170 27 67 33 133 94 161 150 17 33 18 42 7
50 -23 15 -176 88 -186 88 -5 0 -15 -13 -21 -29 -24 -56 -96 -90 -166 -77
-126 24 -179 227 -87 329 26 29 87 57 124 57 60 0 131 -53 150 -111 5 -14 208
87 208 103 0 7 -14 37 -31 66 -33 58 -92 105 -167 136 -60 23 -199 30 -267 13z"/>
<path d="M2675 3110 c-182 -38 -306 -204 -305 -412 1 -192 121 -346 302 -388
137 -31 304 10 392 97 29 28 66 82 66 95 0 8 -153 88 -168 88 -5 0 -20 -16
-33 -35 -31 -45 -92 -75 -153 -75 -56 0 -94 18 -130 60 -27 33 -51 104 -41
121 4 6 106 9 278 9 l272 -1 -3 63 c-3 80 -33 180 -71 240 -70 111 -246 170
-406 138z m172 -177 c37 -17 73 -65 73 -95 0 -16 -14 -18 -155 -18 -85 0 -155
4 -155 9 0 18 47 77 79 98 41 28 107 30 158 6z"/>
<path d="M3270 2710 l0 -410 115 0 115 0 1 243 c0 160 4 254 12 277 34 98 214
111 247 17 6 -18 10 -136 10 -283 l0 -254 116 0 116 0 -4 318 c-4 297 -5 320
-25 371 -12 30 -32 64 -44 77 -34 36 -111 58 -181 50 -99 -10 -164 -55 -219
-151 l-29 -50 0 103 0 102 -115 0 -115 0 0 -410z"/>
<path d="M2317 2271 c-3 -16 -17 -41 -30 -57 -20 -23 -34 -28 -85 -32 l-62 -4
0 -94 0 -94 74 0 74 0 4 -202 c3 -186 5 -207 26 -253 29 -64 64 -100 127 -133
43 -23 65 -27 163 -30 l112 -4 0 110 0 109 -71 5 c-49 4 -79 12 -97 25 l-27
20 -3 177 -2 176 100 0 100 0 0 95 0 95 -100 0 -100 0 0 60 0 60 -99 0 -98 0
-6 -29z"/>
<path d="M3138 2180 c-66 -12 -148 -51 -195 -94 -120 -108 -160 -341 -86 -496
68 -144 195 -220 368 -220 140 0 258 54 322 147 20 29 34 55 32 57 -2 2 -42
23 -88 46 l-84 42 -23 -29 c-13 -15 -23 -31 -24 -35 0 -13 -76 -47 -118 -54
-83 -13 -174 59 -189 150 l-6 36 278 0 278 0 -6 83 c-11 180 -102 313 -241
352 -68 19 -160 26 -218 15z m170 -187 c34 -25 66 -79 58 -98 -4 -12 -32 -15
-156 -15 -142 0 -150 1 -150 20 0 25 57 89 95 107 40 18 120 11 153 -14z"/>
<path d="M3727 2183 c-4 -3 -7 -188 -7 -410 l0 -403 115 0 115 0 0 238 c0 209
3 242 19 278 34 76 117 117 190 95 43 -12 91 -61 91 -92 0 -10 3 -19 8 -19 4
0 41 24 82 53 66 48 75 57 72 82 -9 82 -84 156 -177 175 -119 25 -206 -22
-268 -145 l-26 -50 -1 103 0 102 -103 0 c-57 0 -107 -3 -110 -7z"/>
</g>
</svg>
