<?xml version="1.0" standalone="no"?>
<!DOCTYPE svg PUBLIC "-//W3C//DTD SVG 20010904//EN"
 "http://www.w3.org/TR/2001/REC-SVG-20010904/DTD/svg10.dtd">
<svg version="1.0" xmlns="http://www.w3.org/2000/svg"
 width="1000.000000pt" height="1000.000000pt" viewBox="0 0 1000.000000 1000.000000"
 preserveAspectRatio="xMidYMid meet">
<metadata>
Created by potrace 1.16, written by Peter Selinger 2001-2019
</metadata>
<g transform="translate(0.000000,1000.000000) scale(0.100000,-0.100000)"
fill="#000000" stroke="none">
<path d="M4695 7167 c-316 -183 -671 -389 -942 -547 l-162 -95 1 -65 c1 -36 3
-51 5 -35 4 27 17 38 136 104 73 41 387 220 700 398 l567 324 598 -342 c328
-188 642 -368 697 -400 l100 -57 6 -328 c3 -181 7 -547 7 -814 l2 -485 -705
-403 -705 -403 -462 264 c-430 246 -753 429 -890 505 l-58 32 0 -24 c0 -30
-42 -6 910 -523 162 -89 341 -186 398 -216 l102 -55 648 350 c356 193 683 370
728 394 l81 44 6 377 c4 207 7 590 7 852 l-1 476 -102 59 c-56 32 -381 219
-723 417 -341 197 -627 361 -635 364 -8 3 -146 -71 -314 -168z"/>
<path d="M4880 7151 c-63 -37 -272 -159 -465 -271 -724 -419 -705 -407 -705
-446 l0 -34 58 32 c31 17 318 180 637 362 319 182 584 332 590 334 6 1 296
-161 645 -362 l635 -364 6 -328 c3 -181 7 -516 7 -744 l1 -415 -327 -186
c-180 -103 -470 -269 -644 -369 l-318 -182 -577 329 c-781 445 -713 409 -713
381 0 -28 13 -35 1008 -574 l282 -152 593 320 c325 176 627 339 669 362 l78
41 0 605 c0 333 3 682 7 776 l6 170 -104 61 c-242 141 -1251 723 -1252 722 -1
0 -54 -31 -117 -68z"/>
<path d="M4388 6717 l-608 -350 0 -706 0 -706 602 -335 c331 -184 609 -335
618 -335 9 0 287 151 618 335 l602 335 0 706 0 706 -606 349 c-334 192 -609
350 -613 351 -3 0 -279 -157 -613 -350z m684 -867 c20 -6 46 -18 58 -28 l22
-17 -21 -19 c-18 -16 -25 -17 -47 -8 -31 15 -86 15 -117 1 -50 -23 -73 -111
-44 -169 26 -53 130 -75 175 -38 10 9 18 7 34 -9 24 -25 20 -35 -26 -57 -73
-34 -191 -9 -233 50 -75 106 -34 247 84 289 46 17 67 18 115 5z m797 -21 c90
-50 116 -189 50 -273 -86 -110 -293 -77 -334 52 -12 39 -7 119 8 149 50 95
177 128 276 72z m-1535 -55 c33 -41 63 -77 66 -79 4 -3 36 31 70 75 56 72 66
80 96 80 l34 0 0 -175 0 -175 -35 0 -35 0 0 110 c0 61 -4 110 -9 110 -5 0 -33
-29 -61 -65 -28 -36 -53 -65 -55 -65 -2 0 -27 29 -55 65 -28 36 -56 65 -61 65
-5 0 -9 -49 -9 -110 l0 -110 -35 0 -35 0 0 175 0 175 33 0 c28 0 39 -9 91 -76z
m426 -99 l0 -175 -35 0 -35 0 0 175 0 175 35 0 35 0 0 -175z m719 141 c17 -16
34 -45 37 -64 8 -43 -16 -98 -51 -114 -14 -6 -25 -15 -25 -21 0 -5 18 -31 40
-57 22 -26 40 -51 40 -54 0 -3 -17 -6 -38 -6 -35 0 -42 5 -83 60 -35 47 -50
59 -71 60 -27 0 -28 -1 -28 -60 l0 -60 -40 0 -40 0 0 176 0 176 114 -4 c111
-3 116 -4 145 -32z"/>
<path d="M5689 5762 c-39 -35 -50 -102 -25 -150 54 -105 216 -66 216 53 0 84
-39 125 -119 125 -30 0 -49 -7 -72 -28z"/>
<path d="M5300 5729 l0 -61 60 4 c69 5 83 15 83 59 0 43 -25 59 -90 59 l-53 0
0 -61z"/>
<path d="M2547 3560 c-34 -27 -38 -87 -7 -115 30 -27 88 -25 111 4 58 72 -32
168 -104 111z"/>
<path d="M1290 3538 c0 -24 4 -28 30 -28 20 0 40 -9 57 -26 l26 -26 -7 -320
c-8 -365 -10 -380 -73 -397 -21 -6 -48 -11 -60 -11 -18 0 -23 -6 -23 -25 l0
-25 160 0 160 0 0 24 c0 18 -8 25 -32 32 -19 6 -38 20 -45 34 -14 28 -16 144
-6 393 l6 167 152 -328 c136 -294 154 -327 177 -330 24 -3 32 13 179 335 l154
338 6 -105 c11 -176 10 -425 -2 -458 -11 -32 -48 -52 -95 -52 -19 0 -24 -5
-24 -25 l0 -25 190 0 190 0 0 24 c0 21 -6 24 -50 30 -84 11 -83 9 -92 370 -5
171 -6 325 -3 343 7 38 38 63 77 63 25 0 28 4 28 31 0 28 -3 31 -22 25 -13 -3
-61 -6 -108 -6 l-86 0 -159 -355 c-88 -195 -162 -355 -165 -355 -3 0 -79 161
-169 358 l-165 357 -103 0 -103 0 0 -27z"/>
<path d="M4440 3465 l0 -55 140 0 140 0 0 -365 0 -365 55 0 55 0 0 365 0 365
140 0 140 0 0 55 0 55 -335 0 -335 0 0 -55z"/>
<path d="M5297 3284 c-71 -22 -158 -110 -187 -189 -43 -118 -15 -256 71 -344
64 -67 111 -86 209 -86 70 0 93 4 130 23 55 29 94 65 127 116 29 45 24 51 -45
61 -42 6 -47 5 -70 -25 -29 -37 -93 -70 -137 -70 -79 0 -185 92 -185 161 0 5
98 9 240 9 l240 0 0 55 c0 205 -199 351 -393 289z m192 -117 c38 -25 72 -71
86 -114 l6 -23 -185 0 c-109 0 -186 4 -186 9 0 22 23 68 48 95 64 69 157 82
231 33z"/>
<path d="M6009 3291 c-37 -12 -71 -31 -96 -54 l-23 -20 0 31 0 32 -55 0 -55 0
0 -300 0 -300 55 0 55 0 0 168 c1 235 13 275 101 320 32 17 53 21 80 17 36 -6
36 -6 56 47 19 48 19 54 4 60 -21 9 -90 8 -122 -1z"/>
<path d="M6425 3288 c-16 -6 -47 -23 -67 -40 l-38 -29 0 31 c0 30 0 30 -55 30
l-55 0 0 -300 0 -300 55 0 55 0 0 178 c0 97 4 193 10 211 21 73 107 129 176
115 28 -5 30 -3 48 46 16 44 17 54 5 61 -19 12 -97 10 -134 -3z"/>
<path d="M6783 3281 c-138 -47 -222 -178 -210 -327 12 -156 135 -279 291 -291
78 -7 126 8 177 54 34 31 39 33 39 15 0 -44 10 -52 66 -52 l54 0 0 300 0 300
-55 0 -55 0 0 -41 0 -41 -44 39 c-73 64 -162 79 -263 44z m192 -114 c97 -55
131 -187 76 -296 -93 -182 -364 -100 -364 109 0 154 161 259 288 187z"/>
<path d="M8075 3283 c-139 -50 -212 -166 -203 -326 6 -126 60 -210 171 -269
60 -33 194 -33 254 0 111 58 165 143 171 268 5 100 -13 164 -68 233 -74 93
-214 133 -325 94z m196 -129 c118 -81 118 -266 0 -349 -36 -25 -52 -30 -101
-30 -49 0 -65 5 -101 30 -87 62 -113 172 -64 271 26 51 67 90 114 105 41 13
112 1 152 -27z"/>
<path d="M8550 3262 l-65 -38 0 -83 0 -83 67 -37 66 -36 69 37 68 37 3 80 3
80 -70 40 c-38 23 -71 41 -73 41 -2 0 -32 -17 -68 -38z"/>
<path d="M7280 3225 l0 -55 177 -2 176 -3 -176 -190 -176 -190 -1 -52 0 -53
260 0 260 0 0 55 0 55 -174 2 -174 3 174 187 174 188 0 55 0 55 -260 0 -260 0
0 -55z"/>
<path d="M2581 3249 c-13 -10 -43 -24 -67 -30 -37 -10 -44 -15 -44 -35 0 -18
5 -24 23 -24 44 0 47 -13 47 -217 0 -180 -1 -193 -19 -203 -11 -5 -29 -10 -40
-10 -16 0 -21 -6 -21 -25 l0 -25 140 0 140 0 0 24 c0 20 -6 24 -40 30 -35 5
-40 10 -46 41 -3 19 -5 138 -3 265 l4 230 -25 0 c-14 -1 -36 -10 -49 -21z"/>
<path d="M3027 3260 c-111 -28 -188 -105 -223 -226 -42 -145 16 -288 142 -350
97 -47 212 -23 305 65 41 40 45 57 18 74 -11 7 -27 0 -61 -25 -26 -20 -62 -38
-82 -42 -92 -17 -192 54 -216 154 -51 212 127 383 250 240 53 -62 110 -53 110
17 0 36 -25 68 -64 83 -39 14 -138 20 -179 10z"/>
<path d="M3460 3250 c-14 -10 -44 -24 -67 -31 -35 -9 -43 -16 -43 -35 0 -19 5
-24 25 -24 14 0 29 -8 35 -19 6 -12 10 -93 10 -195 0 -163 -2 -178 -20 -196
-11 -11 -31 -20 -45 -20 -20 0 -25 -5 -25 -25 l0 -25 165 0 165 0 0 24 c0 21
-5 24 -50 28 -80 8 -80 8 -80 189 l0 158 31 36 c34 38 53 43 83 20 49 -37 116
-3 116 58 0 89 -102 97 -193 17 l-37 -32 0 46 c0 41 -2 46 -22 46 -13 0 -34
-9 -48 -20z"/>
<path d="M4019 3256 c-78 -21 -143 -79 -181 -161 -19 -40 -23 -67 -23 -140 0
-82 3 -95 31 -145 58 -102 166 -157 289 -148 103 9 189 69 237 167 19 38 23
62 23 141 0 88 -2 99 -31 150 -38 68 -100 114 -179 135 -70 18 -104 18 -166 1z
m141 -61 c64 -33 110 -128 113 -230 2 -88 -19 -151 -68 -202 -39 -40 -45 -43
-93 -43 -45 0 -57 4 -92 36 -59 53 -83 126 -78 234 3 67 9 95 28 130 45 80
122 110 190 75z"/>
</g>
</svg>
