<?xml version="1.0" standalone="no"?>
<!DOCTYPE svg PUBLIC "-//W3C//DTD SVG 20010904//EN"
 "http://www.w3.org/TR/2001/REC-SVG-20010904/DTD/svg10.dtd">
<svg version="1.0" xmlns="http://www.w3.org/2000/svg"
 width="1000.000000pt" height="1000.000000pt" viewBox="0 0 1000.000000 1000.000000"
 preserveAspectRatio="xMidYMid meet">
<metadata>
Created by potrace 1.16, written by Peter Selinger 2001-2019
</metadata>
<g transform="translate(0.000000,1000.000000) scale(0.100000,-0.100000)"
fill="#000000" stroke="none">
<path d="M4845 7591 c-82 -48 -280 -163 -440 -256 -691 -400 -685 -396 -685
-433 l0 -33 78 42 c102 56 689 389 971 551 124 71 228 130 232 131 4 1 296
-162 648 -363 l640 -365 1 -495 c0 -272 3 -605 7 -740 l6 -245 -644 -369
c-354 -203 -648 -369 -654 -369 -5 0 -98 51 -205 113 -227 131 -889 507 -1002
569 -76 41 -78 42 -78 19 0 -18 13 -30 58 -54 31 -16 226 -122 432 -235 206
-113 469 -257 585 -319 l210 -113 80 42 c44 23 343 185 665 359 l585 317 6
135 c4 74 7 426 8 781 l1 645 -117 68 c-722 418 -1223 706 -1230 705 -4 0 -75
-40 -158 -88z"/>
<path d="M4393 7182 l-602 -347 2 -710 2 -710 605 -337 c518 -289 607 -335
625 -326 11 6 287 159 613 340 l592 330 0 663 c0 364 -3 682 -6 706 l-6 45
-604 347 c-331 191 -607 347 -611 346 -4 0 -279 -157 -610 -347z m1415 -856
c26 -13 30 -20 23 -34 -25 -43 -26 -43 -64 -27 -71 30 -157 11 -157 -35 0 -21
36 -50 62 -50 55 0 125 -25 155 -55 92 -92 -15 -220 -169 -202 -51 6 -138 40
-138 54 0 4 9 19 19 32 18 24 19 24 60 8 59 -24 136 -22 161 3 40 40 15 68
-77 85 -94 18 -131 38 -149 82 -24 57 9 124 76 152 36 16 159 7 198 -13z
m-1250 -6 c50 -31 74 -76 69 -133 -8 -93 -67 -137 -184 -137 l-73 0 0 -60 0
-60 -45 0 -45 0 0 205 0 205 123 0 c104 0 127 -3 155 -20z m232 -145 l0 -165
110 0 110 0 0 -40 0 -40 -155 0 -155 0 0 205 0 205 45 0 45 0 0 -165z m362 19
c3 -146 3 -146 31 -170 38 -33 96 -33 134 0 28 24 28 24 31 170 l3 146 46 0
45 0 -4 -142 c-2 -118 -6 -150 -23 -183 -63 -125 -264 -125 -329 0 -17 34 -21
63 -24 183 l-4 142 45 0 45 0 4 -146z m-994 38 c3 -49 2 -50 -40 -75 -41 -24
-44 -24 -73 -9 -23 13 -26 17 -12 20 9 2 17 8 17 13 0 5 11 9 25 9 14 0 25 -4
25 -10 0 -5 7 -10 16 -10 19 0 15 34 -10 94 -24 57 -47 48 -75 -30 -27 -75
-44 -74 -39 2 3 45 6 50 43 71 l40 22 40 -23 c37 -22 40 -28 43 -74z"/>
<path d="M4370 6200 l0 -70 69 0 c50 0 74 4 85 16 17 16 21 70 8 91 -12 19
-60 33 -113 33 l-49 0 0 -70z"/>
<path d="M2581 4404 c-18 -13 -48 -26 -67 -30 -27 -5 -34 -11 -34 -30 0 -18 5
-24 23 -24 47 0 47 -2 47 -390 0 -392 0 -395 -50 -402 -19 -2 -26 -10 -28 -30
l-3 -28 136 0 136 0 -3 28 c-2 21 -9 28 -31 30 -15 2 -32 12 -37 23 -7 13 -10
165 -8 449 l3 430 -25 -1 c-14 0 -40 -11 -59 -25z"/>
<path d="M1820 4325 c0 -21 5 -25 28 -25 15 0 38 -7 50 -16 l22 -15 0 -347 c0
-390 0 -388 -68 -394 -32 -3 -37 -7 -40 -30 l-3 -28 171 0 171 0 -3 28 c-3 23
-8 27 -40 30 -60 5 -68 25 -68 178 l0 132 98 4 c107 5 155 22 209 77 50 49 68
97 68 181 0 64 -4 82 -28 123 -15 26 -45 59 -67 73 -69 46 -118 54 -317 54
l-183 0 0 -25z m357 -50 c76 -32 115 -95 115 -184 0 -72 -21 -121 -65 -155
-37 -28 -115 -44 -161 -32 l-26 6 0 190 0 190 50 0 c28 0 67 -7 87 -15z"/>
<path d="M3900 4255 l0 -55 135 0 135 0 0 -370 0 -370 55 0 55 0 0 370 0 370
140 0 140 0 0 55 0 55 -330 0 -330 0 0 -55z"/>
<path d="M4713 4055 c-223 -113 -231 -446 -13 -569 50 -28 63 -31 140 -31 71
0 93 4 133 25 51 25 110 83 129 126 14 31 5 39 -55 48 -37 6 -43 4 -66 -25
-29 -37 -92 -68 -140 -69 -76 0 -158 66 -176 143 l-7 27 242 0 243 0 -5 64
c-10 114 -75 218 -166 262 -24 12 -66 20 -122 22 -76 3 -91 0 -137 -23z m207
-91 c36 -18 77 -63 94 -106 9 -21 16 -40 16 -43 0 -3 -85 -5 -189 -5 l-190 0
11 33 c40 117 157 173 258 121z"/>
<path d="M5420 4064 c-19 -8 -45 -25 -57 -36 l-23 -21 0 31 0 32 -55 0 -55 0
0 -305 0 -305 54 0 55 0 3 204 c3 189 5 207 24 233 36 48 82 73 136 73 48 0
49 0 68 46 11 25 20 50 20 55 0 15 -132 10 -170 -7z"/>
<path d="M5823 4050 l-53 -30 0 25 c0 24 -3 25 -55 25 l-55 0 0 -305 0 -305
55 0 55 0 0 201 c0 186 2 204 21 235 30 48 77 74 137 74 54 0 47 -8 89 98 4 9
-14 12 -68 12 -64 0 -81 -4 -126 -30z"/>
<path d="M6194 4056 c-113 -52 -178 -158 -179 -287 0 -68 4 -84 35 -145 57
-111 161 -174 284 -174 59 0 125 27 160 65 l23 25 7 -40 6 -40 55 0 55 0 0
305 0 305 -55 0 -55 0 0 -41 0 -41 -37 32 c-52 46 -92 60 -175 60 -56 0 -85
-6 -124 -24z m232 -107 c108 -67 122 -255 24 -343 -46 -42 -73 -50 -141 -44
-102 10 -179 99 -179 205 0 158 168 262 296 182z"/>
<path d="M7473 4055 c-63 -32 -107 -80 -142 -155 -35 -75 -36 -191 -3 -265 27
-60 92 -129 147 -157 57 -30 158 -35 226 -13 75 25 159 110 184 185 42 124 14
261 -72 347 -59 59 -105 77 -203 81 -76 3 -91 0 -137 -23z m226 -111 c66 -39
109 -139 92 -213 -27 -123 -138 -197 -244 -162 -19 7 -53 32 -76 56 -68 73
-77 164 -25 252 55 95 159 122 253 67z"/>
<path d="M7990 4046 l-55 -32 -3 -85 -3 -85 67 -37 66 -37 69 38 69 37 0 82 0
82 -63 36 c-35 19 -70 35 -78 35 -8 -1 -39 -16 -69 -34z"/>
<path d="M6720 4015 l0 -55 177 -2 176 -3 -176 -190 -176 -190 -1 -57 0 -58
260 0 260 0 0 55 0 55 -179 2 -179 3 179 193 179 193 0 55 0 54 -260 0 -260 0
0 -55z"/>
<path d="M3611 4051 c-74 -19 -131 -88 -131 -158 0 -78 37 -124 151 -184 101
-54 137 -121 89 -169 -61 -61 -162 -18 -187 80 -7 28 -15 36 -37 38 l-28 4 7
-79 c4 -43 9 -81 12 -86 12 -20 84 -40 153 -41 63 0 82 4 119 24 69 39 86 69
86 150 0 63 -3 71 -30 100 -16 18 -69 52 -116 76 -123 61 -158 114 -106 162
58 54 158 17 173 -64 5 -30 10 -34 36 -34 30 0 30 1 24 38 -3 20 -6 54 -6 75
0 34 -4 40 -34 52 -44 19 -132 26 -175 16z"/>
<path d="M2843 4033 c-49 -4 -53 -6 -53 -29 0 -18 5 -24 23 -24 51 -1 52 -4
57 -232 3 -140 9 -220 17 -234 44 -77 172 -80 281 -8 l52 34 0 -45 c0 -29 4
-45 13 -45 6 0 49 9 95 21 73 20 82 25 82 46 0 20 -5 23 -40 23 l-40 0 0 251
0 252 -67 -6 c-38 -4 -83 -7 -100 -7 -28 0 -33 -3 -33 -25 0 -21 5 -25 29 -25
54 0 61 -24 61 -206 l0 -161 -40 -27 c-82 -54 -172 -59 -190 -10 -6 14 -10
124 -10 245 l0 219 -42 -2 c-24 -1 -67 -3 -95 -5z"/>
</g>
</svg>
