<?xml version="1.0" standalone="no"?>
<!DOCTYPE svg PUBLIC "-//W3C//DTD SVG 20010904//EN"
 "http://www.w3.org/TR/2001/REC-SVG-20010904/DTD/svg10.dtd">
<svg version="1.0" xmlns="http://www.w3.org/2000/svg"
 width="300.000000pt" height="300.000000pt" viewBox="0 0 300.000000 300.000000"
 preserveAspectRatio="xMidYMid meet">

<g transform="translate(0.000000,300.000000) scale(0.100000,-0.100000)"
fill="#000000" stroke="none">
<path d="M335 2174 c-22 -8 -57 -28 -77 -44 -20 -17 -39 -30 -42 -30 -3 0 -6
16 -6 35 l0 35 -105 0 -105 0 0 -45 0 -45 50 0 50 0 0 -352 c0 -355 -6 -423
-34 -444 -9 -6 -16 -21 -16 -33 0 -17 6 -21 30 -21 44 0 78 19 103 59 21 35
22 44 25 381 l3 344 26 34 c41 54 80 74 136 69 60 -5 95 -30 125 -87 43 -85
21 -186 -59 -275 -51 -55 -135 -105 -176 -105 -18 0 -23 -6 -23 -25 0 -29 10
-30 76 -14 32 8 48 8 57 0 7 -6 45 -83 83 -172 57 -134 78 -172 121 -219 64
-69 140 -110 206 -110 46 0 48 1 45 27 -2 19 -10 27 -28 30 -30 4 -100 71
-140 133 -16 25 -51 97 -78 160 -27 63 -61 139 -76 168 l-27 53 55 50 c73 66
106 134 106 215 0 104 -46 179 -135 220 -57 27 -111 29 -170 8z"/>
<path d="M880 1833 c-66 -24 -151 -113 -179 -188 -18 -48 -22 -74 -18 -127 8
-124 71 -213 185 -266 45 -20 65 -23 125 -20 89 5 136 26 202 93 64 64 87 112
94 200 3 39 9 69 13 68 4 -1 21 2 38 7 l30 9 0 -190 0 -189 59 0 59 0 4 208
c4 191 6 211 27 255 24 50 87 97 130 97 27 0 62 -17 78 -39 22 -30 33 -138 33
-330 l0 -192 53 3 52 3 6 215 c7 261 15 287 101 331 50 25 81 24 115 -5 45
-38 56 -90 59 -282 2 -194 11 -225 69 -250 73 -30 145 -11 186 48 12 18 24 35
26 37 2 3 16 -7 31 -22 48 -47 118 -70 207 -71 94 0 140 12 215 56 59 36 107
101 112 153 2 24 -1 30 -16 30 -14 0 -22 -10 -28 -31 -11 -44 -84 -108 -148
-129 -71 -24 -157 -16 -210 19 -44 29 -85 106 -95 177 l-7 47 124 4 c97 3 133
9 170 25 68 31 95 94 67 157 -14 29 -80 78 -128 94 -91 31 -206 -1 -272 -76
-73 -83 -107 -223 -78 -322 14 -51 13 -62 -8 -108 -20 -42 -60 -60 -82 -37
-13 13 -17 53 -21 228 -4 190 -7 216 -25 247 -33 55 -77 75 -165 75 -75 0 -99
-9 -182 -67 -14 -10 -22 -8 -45 14 -43 40 -87 58 -142 58 -58 0 -88 -11 -153
-57 l-47 -34 -3 38 -3 38 -60 0 -60 0 -5 -84 c-4 -62 -9 -87 -21 -94 -30 -18
-65 1 -101 55 -38 57 -94 102 -155 124 -51 18 -157 16 -213 -3z m1827 -43 c37
-22 58 -53 67 -96 14 -67 -51 -94 -206 -86 -77 4 -79 8 -53 83 18 49 37 74 80
100 38 24 72 24 112 -1z m-1628 -25 c108 -98 122 -320 26 -432 -85 -100 -207
-73 -266 59 -18 42 -23 71 -24 138 0 113 18 173 70 227 39 41 44 43 98 43 51
0 61 -4 96 -35z"/>
<path d="M104 981 c-40 -17 -40 -67 0 -75 11 -3 41 -7 65 -10 53 -5 70 -19 55
-44 -15 -24 -98 -28 -130 -7 -13 8 -24 11 -24 6 0 -30 124 -47 155 -21 21 18
19 57 -4 70 -11 5 -39 10 -63 10 -52 0 -71 11 -66 36 2 15 14 20 51 22 28 2
55 -2 63 -9 8 -6 17 -10 19 -7 3 3 -1 11 -9 17 -20 17 -85 23 -112 12z"/>
<path d="M267 978 c-7 -4 9 -8 36 -8 l47 0 0 -75 c0 -43 4 -75 10 -75 6 0 10
32 10 75 l0 75 42 0 c23 0 39 2 37 5 -9 8 -170 10 -182 3z"/>
<path d="M513 980 c-48 -19 -58 -92 -19 -137 20 -23 32 -28 71 -28 39 0 51 5
71 28 26 31 32 81 11 108 -28 36 -85 49 -134 29z m96 -15 c75 -38 43 -135 -45
-135 -34 0 -47 5 -63 26 -58 74 22 154 108 109z"/>
<path d="M882 923 c-1 -40 -6 -73 -10 -73 -4 0 -40 29 -79 65 -39 36 -74 65
-77 65 -3 0 -5 -37 -4 -82 l2 -83 5 72 6 73 78 -71 c43 -39 80 -69 83 -66 3 2
3 42 1 88 l-3 84 -2 -72z"/>
<path d="M1165 979 c-60 -36 -41 -70 45 -80 71 -8 90 -21 74 -47 -15 -24 -98
-28 -130 -7 -13 8 -24 11 -24 6 0 -30 124 -47 155 -21 21 18 19 57 -4 70 -11
5 -39 10 -63 10 -51 0 -71 11 -66 36 4 25 57 34 104 18 33 -11 35 -11 22 2
-20 20 -88 28 -113 13z"/>
<path d="M1468 979 c-10 -5 -18 -20 -18 -33 0 -13 -7 -29 -15 -36 -19 -15 -20
-64 -2 -79 23 -18 74 -24 108 -12 21 7 36 8 44 1 9 -7 11 -1 10 25 -2 36 -15
63 -15 32 0 -9 -5 -17 -12 -17 -13 0 -77 46 -95 68 -25 30 27 58 55 30 6 -6
15 -8 19 -4 10 9 -25 36 -46 36 -9 0 -24 -5 -33 -11z m76 -140 c-9 -15 -82
-10 -98 7 -20 19 -20 23 0 45 16 18 18 17 60 -13 24 -17 41 -35 38 -39z"/>
<path d="M1722 903 c0 -49 3 -74 5 -56 4 30 7 32 51 36 l47 3 -47 2 -48 2 0
40 0 40 65 0 c37 0 65 4 65 10 0 6 -30 10 -70 10 l-70 0 2 -87z"/>
<path d="M1912 908 l-2 -88 78 2 77 2 -72 3 -72 4 -4 82 -3 82 -2 -87z"/>
<path d="M2109 961 c-46 -46 -34 -109 25 -138 73 -34 157 24 141 98 -16 70
-112 93 -166 40z m125 -2 c35 -27 37 -90 4 -113 -33 -23 -101 -21 -123 4 -28
31 -24 79 9 107 34 29 75 30 110 2z"/>
<path d="M2348 970 c-76 -59 -15 -171 83 -155 77 13 104 92 50 146 -36 36 -95
40 -133 9z m124 -20 c24 -25 29 -36 23 -58 -11 -45 -34 -62 -82 -62 -54 0 -83
26 -83 74 0 73 87 100 142 46z"/>
<path d="M2561 903 c1 -52 4 -78 8 -63 6 22 13 25 57 28 46 3 53 0 68 -23 10
-15 20 -24 23 -22 2 3 -3 16 -11 30 -15 22 -15 26 -1 37 21 17 19 63 -3 83
-13 12 -37 17 -80 17 l-62 0 1 -87z m140 56 c11 -18 11 -40 -1 -59 -6 -10 -27
-15 -67 -15 l-58 0 -3 33 c-6 58 2 65 64 60 33 -3 60 -11 65 -19z"/>
<path d="M2792 974 c-42 -29 -22 -74 34 -74 83 0 119 -23 87 -56 -20 -20 -120
-15 -133 7 -5 7 -11 11 -15 8 -15 -15 37 -41 84 -42 51 -1 91 21 91 49 0 22
-43 44 -85 44 -23 0 -50 6 -61 14 -17 13 -17 16 -4 30 22 22 60 26 99 10 44
-18 52 -10 12 10 -38 20 -80 20 -109 0z"/>
<path d="M950 900 l0 -80 73 2 72 2 -67 3 c-64 4 -68 5 -68 28 0 21 5 24 48
28 l47 3 -47 2 -48 2 0 40 0 39 68 4 67 3 -72 2 -73 2 0 -80z"/>
</g>
</svg>
