<?xml version="1.0" standalone="no"?>
<!DOCTYPE svg PUBLIC "-//W3C//DTD SVG 20010904//EN"
 "http://www.w3.org/TR/2001/REC-SVG-20010904/DTD/svg10.dtd">
<svg version="1.0" xmlns="http://www.w3.org/2000/svg"
 width="495.000000pt" height="619.000000pt" viewBox="0 0 495.000000 619.000000"
 preserveAspectRatio="xMidYMid meet">

<g transform="translate(0.000000,619.000000) scale(0.100000,-0.100000)"
fill="#000000" stroke="none">
<path d="M0 3095 l0 -3095 2475 0 2475 0 0 3095 0 3095 -2475 0 -2475 0 0
-3095z m1999 273 c12 -34 -2 -63 -33 -66 -33 -4 -56 13 -56 42 0 30 18 46 52
46 21 0 31 -6 37 -22z m1333 0 c2 -19 10 -24 41 -26 36 -3 37 -4 37 -43 0 -39
0 -39 -40 -39 l-40 0 0 -79 c0 -84 4 -91 56 -91 22 0 24 -4 24 -50 0 -50 0
-50 -32 -50 -50 1 -114 34 -132 69 -11 20 -16 57 -16 115 l0 85 -32 3 c-30 3
-33 6 -36 41 -3 32 0 37 18 37 30 0 60 18 60 35 0 11 12 15 44 15 39 0 45 -3
48 -22z m-1524 -54 c21 -24 22 -34 22 -175 l0 -149 -45 0 -44 0 -3 122 c-3
123 -3 123 -30 136 -23 11 -32 10 -58 -3 l-30 -16 0 -120 0 -120 -47 3 -48 3
-3 173 -2 172 50 0 50 0 0 -42 0 -43 19 31 c39 65 124 79 169 28z m529 6 c26
-20 53 -53 53 -66 0 -6 -18 -19 -39 -29 -38 -17 -39 -17 -60 4 -27 27 -75 27
-101 1 -29 -29 -27 -94 5 -125 31 -32 60 -32 90 1 l23 25 41 -21 c34 -17 40
-24 32 -38 -31 -58 -113 -90 -183 -72 -79 21 -128 88 -128 175 0 75 43 135
114 159 42 14 125 7 153 -14z m343 5 c37 -19 69 -72 76 -129 l7 -46 -122 0
c-134 0 -145 -7 -96 -55 31 -32 78 -33 109 -2 21 21 25 22 57 9 43 -18 43 -17
29 -41 -24 -46 -126 -78 -191 -61 -168 46 -165 304 4 339 42 9 93 4 127 -14z
m391 10 c16 -9 34 -27 39 -41 6 -14 10 -88 10 -165 l0 -139 -45 0 -44 0 -3
122 c-3 123 -3 123 -30 136 -23 11 -32 10 -58 -3 l-30 -16 0 -119 0 -120 -50
0 -50 0 0 175 0 175 50 0 50 0 0 -37 0 -37 28 33 c16 19 41 36 62 41 19 4 36
8 38 9 2 1 16 -6 33 -14z m639 -10 c14 -7 34 -22 44 -34 20 -22 49 -118 40
-132 -3 -5 -59 -9 -124 -9 l-120 0 11 -27 c21 -57 88 -72 129 -28 22 23 24 24
54 8 42 -21 41 -19 22 -49 -37 -55 -155 -73 -226 -33 -96 54 -109 202 -24 281
49 45 130 55 194 23z m-2680 0 c26 -13 60 -50 60 -65 0 -3 -14 -14 -31 -24
-30 -18 -31 -18 -49 2 -26 28 -55 35 -80 22 -38 -20 -19 -43 49 -62 83 -22
109 -40 116 -82 14 -70 -43 -116 -143 -116 -68 0 -115 18 -132 50 -8 15 -5 24
17 44 l27 25 29 -25 c38 -32 107 -31 107 2 0 18 -27 31 -89 45 -34 7 -57 19
-71 36 -35 45 -22 115 28 146 34 21 123 22 162 2z m365 0 c48 -23 55 -50 55
-200 l0 -135 -45 0 -45 0 0 36 0 37 -20 -26 c-26 -33 -79 -48 -124 -36 -40 11
-62 34 -70 75 -12 56 47 104 147 119 24 4 50 10 57 15 19 11 5 39 -25 50 -30
11 -87 -8 -102 -35 -9 -15 -12 -15 -41 2 -18 10 -32 23 -32 28 1 18 34 54 65
69 39 20 138 20 180 1z m2545 -22 l1 -38 30 38 c27 33 36 37 75 37 34 0 51 -6
69 -25 32 -32 31 -56 -3 -82 l-27 -20 -18 23 c-22 30 -66 32 -98 5 -22 -18
-24 -27 -27 -135 l-4 -116 -44 0 -44 0 0 175 0 175 45 0 45 0 0 -37z m-1934
-300 c-3 -8 -23 -13 -51 -13 l-45 0 0 140 0 140 29 -6 c16 -3 37 -1 48 4 17
10 18 4 21 -121 1 -72 0 -137 -2 -144z m232 -196 c24 -4 24 -4 -5 -6 l-33 -1
2 53 2 52 3 -47 c4 -42 7 -47 31 -51z m103 83 c29 -16 27 -78 -3 -89 -49 -19
-94 56 -52 86 22 16 30 16 55 3z m126 2 c6 -4 13 -25 15 -47 3 -40 3 -40 -34
-43 l-38 -3 0 50 c0 46 2 51 23 51 12 0 27 -4 34 -8z m109 -79 c-4 -9 -17 -13
-38 -11 -31 3 -33 6 -36 46 -2 23 1 42 7 42 5 0 11 -17 13 -37 2 -27 8 -39 21
-41 14 -3 17 4 17 36 0 21 3 42 8 46 9 9 16 -60 8 -81z m94 77 c0 -5 -11 -10
-25 -10 -14 0 -25 -4 -25 -10 0 -5 11 -10 25 -10 14 0 25 -4 25 -10 0 -5 -11
-10 -25 -10 -38 0 -32 -28 8 -33 28 -3 26 -4 -10 -5 l-43 -2 0 50 0 50 35 0
c19 0 35 -4 35 -10z m61 -34 l19 -31 0 33 c0 17 5 32 10 32 6 0 10 -20 10 -45
0 -25 -4 -45 -10 -45 -5 0 -20 16 -34 36 l-25 37 -4 -39 c-3 -33 -4 -31 -5 14
-2 59 7 61 39 8z m133 28 c20 -19 21 -58 2 -73 -25 -21 -69 -9 -80 21 -17 50
42 89 78 52z m136 6 c0 -5 -13 -10 -30 -10 -16 0 -30 -4 -30 -10 0 -5 11 -10
24 -10 14 0 28 -4 31 -10 4 -6 -7 -10 -24 -10 -43 0 -41 -27 2 -33 31 -4 31
-4 -5 -5 l-38 -2 0 50 0 50 35 0 c19 0 35 -4 35 -10z m49 -30 l18 -40 12 40
c17 56 31 50 30 -12 -1 -47 -2 -49 -8 -18 l-6 35 -12 -32 c-7 -18 -16 -33 -22
-33 -5 0 -13 15 -17 33 l-8 32 -7 -35 c-6 -32 -6 -30 -8 18 0 28 1 52 4 52 4
0 14 -18 24 -40z m146 26 c25 -18 13 -46 -20 -46 -18 0 -25 -5 -25 -20 0 -11
-4 -20 -10 -20 -11 0 -14 83 -3 93 11 11 38 8 58 -7z m45 -42 c0 -24 -4 -44
-10 -44 -5 0 -10 23 -10 51 0 31 4 48 10 44 6 -3 10 -26 10 -51z m85 46 c4 -6
-7 -10 -24 -10 -17 0 -31 -4 -31 -10 0 -5 11 -10 24 -10 14 0 28 -4 31 -10 4
-6 -7 -10 -24 -10 -43 0 -41 -27 2 -33 28 -3 26 -4 -10 -5 l-43 -2 0 43 c0 24
3 47 7 50 10 11 61 8 68 -3z m88 4 c4 -4 -7 -24 -24 -45 l-31 -39 32 0 c27 0
33 5 50 46 11 25 24 43 29 40 13 -8 42 -96 31 -96 -4 0 -10 6 -13 14 -6 15
-47 11 -47 -5 0 -5 -22 -9 -50 -9 -27 0 -50 3 -50 7 0 3 11 21 26 40 l25 33
-26 0 c-15 0 -24 4 -20 10 7 11 58 14 68 4z m212 -4 c4 -6 -7 -10 -24 -10 -17
0 -31 -4 -31 -10 0 -5 11 -10 25 -10 14 0 25 -4 25 -10 0 -5 -11 -10 -25 -10
-38 0 -32 -28 8 -33 28 -3 26 -4 -10 -5 l-43 -2 0 43 c0 24 3 47 7 50 10 11
61 8 68 -3z m56 -27 l23 -38 7 40 c6 40 6 39 8 -12 0 -29 -3 -53 -8 -53 -5 0
-18 15 -30 33 l-21 32 0 -32 c0 -18 -4 -33 -10 -33 -11 0 -14 83 -3 93 9 10 9
10 34 -30z m164 24 c12 -10 14 -16 7 -21 -7 -4 -12 -2 -12 4 0 6 -10 10 -22 8
-17 -2 -24 -11 -26 -31 -4 -35 21 -46 50 -21 14 13 19 14 16 5 -2 -8 -13 -20
-24 -28 -44 -29 -87 43 -48 81 19 20 35 20 59 3z m86 -33 c11 -26 17 -50 13
-53 -4 -3 -9 0 -11 7 -5 14 -53 17 -53 2 0 -5 -4 -10 -10 -10 -6 0 -6 9 0 25
6 14 14 36 20 50 5 14 12 25 15 25 3 0 15 -21 26 -46z m83 40 c26 -10 18 -25
-9 -18 -15 4 -25 2 -25 -5 0 -6 11 -13 24 -17 47 -11 39 -56 -9 -56 -15 0 -31
6 -36 13 -12 19 -4 22 20 7 16 -10 23 -10 32 -1 13 13 13 12 -36 28 -18 5 -20
41 -2 48 18 8 23 8 41 1z m99 -51 c9 -24 13 -43 8 -43 -5 0 -11 6 -14 14 -7
18 -35 15 -47 -4 -19 -31 -19 0 0 45 23 53 29 51 53 -12z"/>
<path d="M2565 3268 c-26 -14 -46 -39 -39 -49 9 -15 134 -11 134 4 0 18 -12
32 -37 46 -26 13 -32 13 -58 -1z"/>
<path d="M3610 3273 c-24 -9 -50 -35 -50 -50 0 -9 17 -13 64 -13 72 0 84 8 58
38 -19 23 -49 33 -72 25z"/>
<path d="M1290 3137 c-27 -9 -35 -17 -35 -37 0 -22 5 -25 37 -28 28 -2 40 2
52 20 36 51 15 69 -54 45z"/>
<path d="M2285 2860 c-7 -23 10 -50 30 -50 20 0 37 27 30 50 -4 13 -15 20 -30
20 -15 0 -26 -7 -30 -20z"/>
<path d="M2430 2870 c0 -5 9 -10 20 -10 11 0 20 5 20 10 0 6 -9 10 -20 10 -11
0 -20 -4 -20 -10z"/>
<path d="M2430 2825 c0 -8 9 -15 20 -15 11 0 20 7 20 15 0 8 -9 15 -20 15 -11
0 -20 -7 -20 -15z"/>
<path d="M2804 2866 c-11 -29 0 -51 26 -51 21 0 25 5 25 30 0 24 -5 31 -23 33
-13 2 -24 -3 -28 -12z"/>
<path d="M3150 2865 c0 -8 9 -15 20 -15 11 0 20 7 20 15 0 8 -9 15 -20 15 -11
0 -20 -7 -20 -15z"/>
<path d="M3456 2855 c-3 -8 -1 -15 4 -15 6 0 10 7 10 15 0 8 -2 15 -4 15 -2 0
-6 -7 -10 -15z"/>
<path d="M3896 2855 c-3 -9 0 -15 9 -15 9 0 12 6 9 15 -4 8 -7 15 -9 15 -2 0
-5 -7 -9 -15z"/>
<path d="M4076 2855 c-3 -8 -1 -15 4 -15 6 0 10 7 10 15 0 8 -2 15 -4 15 -2 0
-6 -7 -10 -15z"/>
</g>
</svg>
