<?xml version="1.0" standalone="no"?>
<!DOCTYPE svg PUBLIC "-//W3C//DTD SVG 20010904//EN"
 "http://www.w3.org/TR/2001/REC-SVG-20010904/DTD/svg10.dtd">
<svg version="1.0" xmlns="http://www.w3.org/2000/svg"
 width="1200.000000pt" height="431.000000pt" viewBox="0 0 1200.000000 431.000000"
 preserveAspectRatio="xMidYMid meet">

<g transform="translate(0.000000,431.000000) scale(0.100000,-0.100000)"
fill="#000000" stroke="none">
<path d="M203 4142 l-23 -3 0 -2000 0 -1999 958 2 957 3 0 1995 0 1995 -935 5
c-514 3 -945 4 -957 2z m1232 -953 c237 -48 389 -157 474 -340 31 -66 71 -204
71 -246 0 -13 -6 -26 -12 -28 -15 -5 -458 -35 -522 -35 l-44 0 -21 68 c-23 78
-73 142 -132 172 -77 40 -216 43 -287 6 -101 -52 -119 -184 -34 -245 42 -29
88 -45 292 -96 381 -96 560 -179 680 -313 218 -244 195 -669 -50 -920 -161
-166 -369 -235 -705 -235 -465 -1 -698 117 -840 427 -52 112 -93 297 -71 315
6 5 126 16 266 25 140 10 266 18 280 19 18 2 26 -4 31 -23 53 -179 80 -229
152 -281 113 -82 322 -77 421 10 27 24 56 85 62 135 5 34 1 56 -19 99 -42 92
-112 130 -366 197 -190 50 -255 72 -376 130 -272 129 -395 316 -382 580 14
296 217 513 542 580 163 34 420 33 590 -1z"/>
<path d="M2305 4128 c-3 -7 -4 -906 -3 -1998 l3 -1985 1183 -3 1182 -2 0 2000
0 2000 -1180 0 c-935 0 -1182 -3 -1185 -12z m1195 -920 c154 -21 254 -71 351
-176 104 -112 145 -229 136 -385 -4 -78 -9 -98 -46 -172 -50 -101 -109 -163
-260 -270 -61 -43 -111 -83 -111 -89 0 -6 11 -19 24 -31 13 -11 76 -65 140
-119 l117 -99 33 32 c42 41 119 170 169 285 22 50 41 92 42 94 3 4 356 -207
373 -223 11 -10 9 -23 -13 -74 -34 -81 -136 -253 -219 -369 -46 -63 -64 -97
-59 -106 5 -8 106 -119 226 -246 l218 -230 -367 2 -368 3 -33 45 c-19 25 -44
58 -56 73 l-22 28 -60 -41 c-74 -51 -174 -102 -240 -124 -181 -59 -467 -61
-675 -5 -218 59 -391 225 -445 429 -19 73 -19 217 1 294 47 184 194 346 411
455 l62 31 -43 62 c-98 141 -146 272 -146 400 0 188 76 330 233 435 150 100
349 129 627 91z"/>
<path d="M3256 2796 c-86 -24 -133 -99 -112 -182 10 -37 114 -144 141 -144 55
0 176 109 194 177 14 50 14 59 -5 94 -27 53 -130 79 -218 55z"/>
<path d="M3025 1828 c-65 -59 -94 -109 -102 -177 -7 -65 22 -130 77 -170 61
-44 101 -54 199 -49 87 5 147 26 223 79 l26 19 -174 175 c-96 96 -179 175
-184 175 -4 0 -34 -23 -65 -52z"/>
<path d="M4875 4128 c-3 -7 -4 -906 -3 -1998 l3 -1985 960 0 960 0 0 1995 0
1995 -958 3 c-761 2 -959 0 -962 -10z m1384 -977 c99 -29 166 -62 222 -108
147 -120 216 -311 206 -568 -3 -74 -13 -156 -22 -190 -58 -209 -192 -356 -383
-419 -111 -37 -191 -46 -448 -54 l-229 -7 -5 -395 -5 -395 -305 0 -305 0 -3
1074 c-2 853 0 1076 10 1083 7 5 279 7 603 5 578 -3 592 -4 664 -26z"/>
<path d="M5604 2727 c-2 -7 -3 -114 -2 -237 l3 -225 134 -3 c165 -3 224 11
280 67 73 73 88 183 39 288 -43 91 -127 123 -325 123 -91 0 -125 -3 -129 -13z"/>
<path d="M7058 2286 c-83 -30 -128 -82 -128 -149 0 -82 34 -121 165 -191 82
-43 95 -53 118 -86 25 -35 21 -65 -12 -102 -28 -32 -32 -33 -103 -32 -50 1
-88 8 -120 22 -51 23 -56 21 -56 -20 1 -41 27 -57 114 -70 68 -10 87 -9 138 6
101 30 149 99 132 192 -10 49 -65 101 -163 152 -128 66 -159 119 -108 181 39
46 133 52 228 16 14 -6 17 -1 17 33 0 39 -2 42 -37 51 -52 15 -140 13 -185 -3z"/>
<path d="M8499 2286 c-78 -21 -143 -79 -181 -161 -32 -70 -33 -237 -2 -306 27
-58 85 -116 143 -143 72 -33 188 -30 264 7 104 51 158 152 158 297 1 107 -24
174 -87 237 -76 77 -178 101 -295 69z m169 -71 c47 -20 78 -50 105 -100 18
-33 22 -57 22 -140 0 -84 -4 -107 -22 -141 -91 -170 -331 -142 -387 45 -64
216 100 411 282 336z"/>
<path d="M11438 2287 c-50 -14 -63 -22 -116 -71 -120 -110 -120 -366 -1 -485
55 -55 111 -76 205 -76 70 0 89 4 140 30 69 36 117 93 139 167 20 68 19 192
-2 257 -20 64 -79 132 -137 161 -56 27 -164 35 -228 17z m170 -73 c88 -36 132
-117 132 -242 0 -84 -15 -133 -57 -182 -34 -39 -104 -70 -157 -70 -151 0 -252
175 -201 346 38 128 168 196 283 148z"/>
<path d="M7437 2284 c-4 -4 -7 -144 -7 -310 0 -294 1 -303 20 -309 11 -3 29
-3 40 0 20 6 20 13 18 313 l-3 307 -30 3 c-17 2 -34 0 -38 -4z"/>
<path d="M7672 1978 l3 -313 30 0 30 0 3 240 c1 132 6 243 10 247 5 5 80 -102
167 -237 161 -251 171 -261 226 -253 l24 3 3 313 2 312 -35 0 c-26 0 -35 -4
-36 -17 0 -10 0 -120 1 -245 1 -127 -3 -229 -8 -232 -5 -3 -71 92 -147 212
-188 296 -177 282 -231 282 l-44 0 2 -312z"/>
<path d="M9007 2284 c-4 -4 -7 -144 -7 -310 0 -294 1 -303 20 -309 11 -3 29
-4 40 0 18 6 20 17 22 138 l3 132 144 5 c112 4 148 2 158 -8 9 -10 13 -48 13
-138 l0 -124 27 -6 c18 -5 30 -2 37 8 8 10 9 106 6 314 l-5 299 -32 3 -32 3
-3 -133 -3 -133 -155 0 -155 0 -5 130 -5 130 -30 3 c-17 2 -34 0 -38 -4z"/>
<path d="M9570 2275 c0 -10 42 -96 92 -193 l92 -177 4 -118 c4 -127 8 -135 57
-123 25 6 25 7 25 124 l1 117 98 185 c55 102 97 188 94 192 -5 10 -55 10 -69
0 -6 -4 -44 -71 -85 -149 -41 -79 -76 -143 -79 -143 -3 0 -39 66 -80 148 l-75
147 -37 3 c-30 3 -38 0 -38 -13z"/>
<path d="M10132 1978 l3 -313 120 0 c147 1 204 18 273 80 72 65 97 127 97 240
0 106 -14 153 -63 207 -66 74 -147 98 -323 98 l-109 0 2 -312z m265 227 c63
-19 98 -46 124 -97 63 -123 16 -294 -95 -348 -59 -28 -203 -41 -217 -19 -14
22 -11 453 3 467 17 17 124 15 185 -3z"/>
<path d="M10755 2278 c-3 -7 -4 -148 -3 -313 l3 -300 24 -3 c13 -2 28 1 35 8
6 6 13 62 16 133 l5 122 43 -1 c61 -1 88 -26 159 -144 34 -57 68 -107 75 -111
18 -12 66 -11 73 1 6 10 -134 238 -160 260 -22 18 -19 23 24 49 75 47 101 141
59 220 -36 69 -76 85 -225 90 -97 2 -124 0 -128 -11z m231 -73 c81 -34 77
-161 -7 -195 -26 -11 -135 -17 -144 -8 -7 7 -7 196 -1 207 10 16 111 14 152
-4z"/>
<path d="M8143 1486 c-135 -43 -203 -149 -203 -317 0 -139 53 -234 158 -286
47 -23 70 -28 127 -27 97 0 145 17 203 69 75 67 96 125 97 255 0 95 -3 110
-28 162 -16 32 -47 73 -70 93 -70 60 -187 81 -284 51z m182 -75 c53 -24 91
-70 110 -133 40 -136 -2 -281 -97 -329 -124 -63 -257 -10 -303 122 -35 97 -10
232 54 295 64 64 157 81 236 45z"/>
<path d="M9743 1482 c-91 -33 -170 -111 -193 -191 -46 -159 -2 -318 108 -391
55 -36 94 -45 192 -44 98 0 150 23 150 65 0 34 0 34 -81 13 -106 -27 -188 -7
-246 60 -99 111 -73 324 49 399 60 37 146 47 214 23 63 -21 64 -21 64 19 0 45
-22 56 -124 62 -62 3 -93 -1 -133 -15z"/>
<path d="M6962 1178 l3 -313 24 -3 c13 -2 28 1 35 8 6 6 13 58 16 118 l5 107
75 6 c41 3 89 12 105 18 68 28 115 101 115 180 0 138 -76 191 -277 191 l-103
0 2 -312z m234 226 c73 -35 85 -137 25 -198 -29 -29 -36 -31 -104 -31 l-72 0
-3 109 c-1 61 0 116 2 123 8 19 110 17 152 -3z"/>
<path d="M7457 1476 c-9 -23 -8 -590 2 -604 4 -8 21 -12 37 -10 l29 3 5 124
c6 140 10 149 75 137 48 -9 78 -40 139 -147 27 -46 55 -92 64 -101 15 -18 77
-25 86 -10 6 9 -100 185 -145 243 -16 20 -29 39 -29 42 0 3 16 14 35 26 57 34
77 74 73 155 -4 64 -6 70 -40 101 -48 44 -91 55 -219 55 -81 0 -108 -3 -112
-14z m231 -67 c40 -14 62 -49 62 -100 0 -33 -6 -47 -34 -75 -32 -32 -38 -34
-104 -34 -83 0 -82 -1 -82 110 0 108 1 110 70 110 31 0 71 -5 88 -11z"/>
<path d="M8560 1485 c0 -3 44 -92 97 -198 l98 -192 5 -115 5 -115 30 0 30 0 5
115 5 115 98 186 c53 102 97 191 97 198 0 8 -13 11 -37 9 -37 -3 -37 -4 -113
-148 -41 -80 -79 -143 -84 -140 -5 3 -41 68 -80 145 l-71 140 -42 3 c-24 2
-43 0 -43 -3z"/>
<path d="M9125 1477 c-3 -7 -4 -147 -3 -312 l3 -300 165 0 165 0 0 30 0 30
-114 3 c-64 1 -121 8 -128 14 -18 15 -18 181 0 196 7 6 58 13 112 14 88 3 100
5 103 22 7 32 -16 41 -121 46 l-102 5 -3 83 c-2 53 1 89 9 98 8 10 39 14 120
14 l109 0 0 35 0 35 -155 0 c-116 0 -157 -3 -160 -13z"/>
<path d="M10060 1455 l0 -35 79 0 c53 0 82 -4 90 -13 7 -9 12 -103 13 -278 l3
-264 30 0 30 0 5 275 c3 151 7 276 8 277 1 1 41 4 90 5 l87 3 0 30 0 30 -217
3 -218 2 0 -35z"/>
<path d="M10719 1468 c-27 -51 -229 -591 -223 -599 3 -5 18 -9 34 -9 35 0 50
21 75 100 9 30 24 61 33 68 11 8 53 12 129 12 129 0 124 3 164 -105 25 -69 31
-75 78 -75 27 0 32 3 28 18 -7 27 -218 574 -228 594 -14 27 -75 24 -90 -4z
m95 -217 c25 -68 43 -128 40 -132 -3 -5 -45 -9 -95 -9 -69 0 -89 3 -89 14 0 7
15 56 34 107 49 136 56 152 60 148 2 -2 25 -60 50 -128z"/>
<path d="M7045 595 c-58 -21 -101 -72 -114 -136 -17 -87 7 -154 73 -203 49
-37 228 -24 190 14 -6 6 -24 5 -50 -1 -58 -15 -117 2 -146 43 -30 43 -37 141
-14 187 28 54 70 73 149 68 58 -4 68 -2 65 11 -6 31 -88 40 -153 17z"/>
<path d="M7369 600 c-105 -32 -153 -169 -96 -280 34 -67 65 -85 147 -85 74 0
103 14 144 69 25 33 35 160 16 205 -31 76 -126 117 -211 91z m120 -45 c80 -41
84 -220 6 -271 -42 -27 -118 -24 -151 7 -38 35 -54 72 -54 124 0 55 22 108 58
135 30 24 100 27 141 5z"/>
<path d="M8100 599 c-61 -25 -86 -80 -59 -130 5 -11 41 -40 79 -64 75 -48 90
-73 66 -110 -20 -31 -63 -39 -115 -22 -39 14 -41 14 -41 -4 0 -39 99 -52 160
-21 24 11 37 27 44 49 13 49 -7 87 -68 124 -99 62 -118 96 -76 134 15 14 31
17 75 13 47 -4 55 -2 55 13 0 27 -69 38 -120 18z"/>
<path d="M8406 600 c-37 -12 -85 -56 -102 -97 -8 -18 -14 -57 -14 -88 0 -103
58 -174 150 -183 100 -9 169 43 190 142 31 152 -83 268 -224 226z m122 -44
c43 -23 62 -65 62 -137 0 -52 -5 -73 -23 -100 -40 -60 -137 -74 -187 -27 -72
67 -64 212 14 259 36 22 100 24 134 5z"/>
<path d="M9097 595 c-82 -29 -123 -101 -115 -205 5 -64 22 -97 71 -134 50 -37
197 -31 197 9 0 18 1 18 -56 4 -95 -24 -174 42 -174 146 0 59 25 112 64 137
25 16 44 18 99 15 58 -4 68 -2 65 11 -6 31 -88 40 -151 17z"/>
<path d="M9535 596 c-49 -21 -93 -79 -101 -131 -22 -148 53 -244 183 -233 112
10 175 107 152 236 -12 61 -35 92 -89 120 -50 25 -100 28 -145 8z m130 -38
c61 -27 87 -137 52 -220 -39 -94 -164 -99 -224 -9 -42 63 -25 175 35 221 28
23 96 27 137 8z"/>
<path d="M10080 594 c-77 -33 -113 -91 -114 -179 0 -80 24 -128 81 -162 37
-21 52 -25 101 -21 31 3 70 10 85 16 28 12 28 13 25 89 l-3 78 -57 3 c-46 2
-58 0 -58 -12 0 -10 12 -16 38 -18 36 -3 37 -4 40 -49 4 -58 -14 -74 -79 -73
-85 1 -130 53 -130 149 0 103 54 158 151 152 30 -2 63 -7 73 -11 13 -6 17 -4
17 12 0 38 -105 54 -170 26z"/>
<path d="M10645 595 c-42 -22 -55 -43 -55 -86 0 -41 28 -71 112 -120 49 -29
62 -55 44 -90 -17 -34 -67 -46 -116 -26 -48 19 -65 4 -29 -26 19 -15 35 -18
82 -15 73 5 111 37 111 94 0 41 -34 78 -117 126 -39 23 -47 33 -47 56 0 47 30
65 95 60 42 -4 55 -1 55 9 0 31 -86 43 -135 18z"/>
<path d="M11204 591 c-97 -44 -132 -171 -77 -278 56 -108 232 -111 291 -4 95
171 -47 358 -214 282z m162 -53 c51 -46 55 -171 8 -227 -74 -89 -212 -45 -229
72 -18 118 65 211 165 184 19 -5 45 -18 56 -29z"/>
<path d="M7660 421 c0 -144 3 -180 14 -184 8 -3 17 -3 20 0 3 4 6 66 6 139 0
73 4 135 8 138 5 3 50 -55 100 -128 95 -139 115 -162 132 -151 6 4 10 72 10
186 0 166 -1 180 -17 177 -16 -3 -19 -20 -23 -143 l-5 -140 -99 143 c-80 115
-103 142 -122 142 l-24 0 0 -179z"/>
<path d="M8708 594 c-5 -4 -8 -83 -8 -174 0 -136 3 -170 15 -180 20 -16 24 -4
27 80 3 63 4 65 31 68 37 4 49 -7 92 -84 39 -69 51 -82 67 -66 9 9 -26 85 -67
145 -11 15 -7 23 21 51 43 43 46 91 10 133 -22 25 -31 28 -103 31 -43 2 -81 0
-85 -4z m154 -54 c24 -30 23 -54 -4 -84 -30 -32 -80 -43 -102 -21 -17 17 -23
114 -8 129 15 16 96 -1 114 -24z"/>
<path d="M9320 420 c0 -173 1 -180 20 -180 19 0 20 7 20 180 0 173 -1 180 -20
180 -19 0 -20 -7 -20 -180z"/>
<path d="M10342 418 l3 -183 70 -3 c80 -3 118 4 112 21 -2 7 -31 14 -73 17
l-69 5 -3 63 -3 62 53 0 c29 0 60 5 68 10 24 16 -6 30 -68 30 l-53 0 3 63 3
62 64 5 c39 3 66 10 69 18 3 9 -19 12 -87 12 l-91 0 2 -182z"/>
<path d="M10830 586 c0 -11 14 -16 48 -18 l47 -3 3 -160 c2 -153 9 -184 34
-169 4 3 8 74 8 158 0 105 4 156 12 164 7 7 29 12 50 12 27 0 38 4 38 15 0 13
-20 15 -120 15 -98 0 -120 -3 -120 -14z"/>
<path d="M11520 420 c0 -153 2 -180 15 -180 12 0 15 13 15 59 0 78 6 91 40 91
36 0 53 -18 90 -90 24 -49 45 -70 66 -70 13 0 -1 36 -37 100 l-41 72 31 30
c25 25 31 39 31 73 0 36 -5 48 -31 69 -27 23 -39 26 -105 26 l-74 0 0 -180z
m157 124 c19 -26 16 -67 -7 -92 -26 -27 -104 -32 -114 -6 -11 28 -6 100 7 113
17 18 97 8 114 -15z"/>
</g>
</svg>
