<?xml version="1.0" standalone="no"?>
<!DOCTYPE svg PUBLIC "-//W3C//DTD SVG 20010904//EN"
 "http://www.w3.org/TR/2001/REC-SVG-20010904/DTD/svg10.dtd">
<svg version="1.0" xmlns="http://www.w3.org/2000/svg"
 width="1000.000000pt" height="1000.000000pt" viewBox="0 0 1000.000000 1000.000000"
 preserveAspectRatio="xMidYMid meet">
<metadata>
Created by potrace 1.16, written by Peter Selinger 2001-2019
</metadata>
<g transform="translate(0.000000,1000.000000) scale(0.100000,-0.100000)"
fill="#000000" stroke="none">
<path d="M3870 5700 l0 -1090 460 0 460 0 0 1090 0 1090 -460 0 -460 0 0
-1090z"/>
<path d="M5300 5700 l0 -1090 460 0 460 0 0 1090 0 1090 -460 0 -460 0 0
-1090z"/>
<path d="M6393 6752 l-63 -37 0 -81 0 -80 73 -38 72 -38 68 38 67 38 0 80 0
81 -66 38 c-36 20 -71 37 -78 36 -6 0 -39 -17 -73 -37z"/>
<path d="M1846 4273 c-4 -54 -10 -106 -12 -115 -5 -15 1 -18 34 -18 38 0 40 1
58 52 30 82 51 92 204 96 l130 4 0 -461 c0 -519 1 -511 -68 -530 -20 -6 -45
-11 -54 -11 -13 0 -18 -8 -18 -30 l0 -30 215 0 215 0 0 30 c0 22 -5 30 -17 30
-10 0 -35 5 -56 11 -67 18 -67 18 -67 535 l0 456 140 -4 c164 -4 180 -12 190
-95 5 -47 6 -48 41 -51 l36 -3 6 53 c4 29 7 81 7 116 l0 62 -489 0 -489 0 -6
-97z"/>
<path d="M6860 4250 c-12 -12 -20 -33 -20 -55 0 -22 8 -43 20 -55 12 -12 33
-20 55 -20 46 0 75 29 75 75 0 66 -83 102 -130 55z"/>
<path d="M5722 4000 c-23 -10 -58 -31 -77 -46 l-35 -26 0 36 0 36 -70 0 -70 0
0 -390 0 -390 70 0 70 0 0 248 c0 218 3 252 19 287 75 164 284 168 365 8 13
-27 16 -72 16 -288 l0 -255 70 0 70 0 0 225 c0 123 5 246 10 273 27 123 167
198 276 146 46 -22 100 -85 113 -131 6 -22 11 -139 11 -275 l0 -238 71 0 70 0
-3 288 -3 287 -27 52 c-32 60 -87 116 -143 147 -34 18 -57 21 -145 21 -96 0
-109 -2 -151 -27 -25 -15 -62 -45 -81 -66 l-36 -40 -31 38 c-17 22 -57 51 -92
69 -54 27 -72 31 -143 31 -58 0 -93 -6 -124 -20z"/>
<path d="M6840 3610 l0 -390 70 0 70 0 0 390 0 390 -70 0 -70 0 0 -390z"/>
<path d="M7116 3988 c4 -7 67 -94 140 -194 l131 -181 -138 -191 c-77 -105
-139 -193 -139 -196 0 -3 38 -6 84 -6 l84 0 100 135 99 136 98 -136 98 -135
85 0 c68 0 83 3 79 14 -3 8 -63 92 -132 187 -70 95 -129 178 -132 185 -2 7 57
96 131 198 75 102 136 188 136 191 0 3 -38 5 -85 5 l-85 0 -78 -107 c-42 -58
-86 -117 -97 -130 l-20 -25 -95 131 -95 130 -88 1 c-68 0 -86 -3 -81 -12z"/>
<path d="M7953 3964 l-63 -36 0 -81 0 -82 70 -38 69 -38 68 39 68 38 3 80 3
79 -64 38 c-35 20 -70 37 -78 37 -8 -1 -42 -17 -76 -36z"/>
<path d="M3023 3980 c-119 -25 -211 -128 -243 -271 -19 -83 -9 -252 18 -312
30 -66 102 -140 165 -168 103 -46 239 -27 326 47 34 28 91 100 91 114 0 4 -12
15 -26 25 -25 16 -26 16 -70 -25 -56 -52 -99 -70 -165 -70 -128 0 -202 93
-216 272 l-6 78 234 2 234 3 3 28 c6 51 -18 136 -52 180 -59 78 -186 120 -293
97z m144 -101 c32 -31 53 -71 53 -104 l0 -25 -150 0 c-171 0 -170 -1 -124 78
47 80 161 106 221 51z"/>
<path d="M3823 3970 c-23 -10 -63 -40 -89 -65 l-47 -47 5 61 4 61 -32 0 c-17
0 -51 -11 -75 -24 -24 -13 -63 -29 -86 -36 -36 -9 -43 -15 -43 -35 0 -20 7
-26 39 -35 27 -7 41 -17 45 -33 7 -28 8 -455 0 -484 -6 -23 -49 -43 -90 -43
-20 0 -24 -5 -24 -30 l0 -30 215 0 215 0 0 30 c0 27 -3 30 -32 30 -54 1 -112
18 -126 37 -10 14 -12 65 -10 225 l3 207 34 35 c46 47 64 52 105 27 74 -46
156 -12 156 64 0 49 -15 74 -55 91 -45 18 -61 17 -112 -6z"/>
<path d="M4423 3971 c-23 -11 -62 -38 -87 -62 l-46 -42 0 57 c0 56 0 56 -31
56 -17 0 -49 -11 -72 -24 -23 -13 -61 -29 -85 -36 -39 -10 -43 -14 -40 -38 2
-21 9 -28 30 -30 51 -6 53 -15 53 -278 0 -274 1 -271 -74 -281 -37 -5 -41 -8
-41 -34 l0 -29 210 0 210 0 0 29 c0 28 -2 29 -62 35 -100 12 -98 6 -98 243 0
228 4 245 66 283 l36 23 38 -22 c56 -31 102 -28 134 10 45 53 31 119 -29 145
-45 18 -61 17 -112 -5z"/>
<path d="M4858 3938 c-45 -24 -104 -64 -130 -89 -42 -40 -48 -50 -48 -86 0
-49 20 -73 59 -73 42 0 62 21 72 76 13 71 52 106 121 111 97 7 138 -40 138
-157 l0 -66 -96 -29 c-123 -36 -202 -74 -252 -119 -52 -47 -65 -82 -60 -156 5
-71 35 -109 105 -136 71 -28 189 -7 265 47 31 22 48 24 48 6 0 -23 45 -57 82
-63 42 -7 92 13 141 56 35 30 49 71 29 84 -5 3 -28 -4 -52 -16 -69 -34 -70
-30 -70 271 0 246 -1 257 -23 295 -32 57 -92 86 -178 86 -60 0 -77 -5 -151
-42z m210 -455 l-3 -97 -43 -33 c-56 -43 -110 -57 -162 -43 -46 12 -60 33 -60
89 0 45 33 92 83 118 36 18 156 61 175 62 10 1 12 -22 10 -96z"/>
</g>
</svg>
